<?xml version="1.0" encoding="UTF-8" standalone="no"?>
<!-- Created with Inkscape (http://www.inkscape.org/) -->

<svg
   xmlns:dc="http://purl.org/dc/elements/1.1/"
   xmlns:cc="http://creativecommons.org/ns#"
   xmlns:rdf="http://www.w3.org/1999/02/22-rdf-syntax-ns#"
   xmlns:svg="http://www.w3.org/2000/svg"
   xmlns="http://www.w3.org/2000/svg"
   xmlns:sodipodi="http://sodipodi.sourceforge.net/DTD/sodipodi-0.dtd"
   xmlns:inkscape="http://www.inkscape.org/namespaces/inkscape"
   version="1.1"
   id="svg869"
   xml:space="preserve"
   width="352.9917"
   height="405.62531"
   viewBox="0 0 352.9917 405.62531"
   sodipodi:docname="2399859.ai.svg"
   inkscape:version="0.92.4 (33fec40, 2019-01-16)"><metadata
     id="metadata875"><rdf:RDF><cc:Work
         rdf:about=""><dc:format>image/svg+xml</dc:format><dc:type
           rdf:resource="http://purl.org/dc/dcmitype/StillImage" /><dc:title></dc:title></cc:Work></rdf:RDF></metadata><defs
     id="defs873"><clipPath
       clipPathUnits="userSpaceOnUse"
       id="clipPath887"><path
         d="M 0,500 H 500 V 0 H 0 Z"
         id="path885"
         inkscape:connector-curvature="0" /></clipPath><clipPath
       clipPathUnits="userSpaceOnUse"
       id="clipPath895"><path
         d="M 36.9617,459.962 H 466.93 V 56.9575 H 36.9617 Z"
         id="path893"
         inkscape:connector-curvature="0" /></clipPath><clipPath
       clipPathUnits="userSpaceOnUse"
       id="clipPath911"><path
         d="M 0,500 H 500 V 0 H 0 Z"
         id="path909"
         inkscape:connector-curvature="0" /></clipPath><clipPath
       clipPathUnits="userSpaceOnUse"
       id="clipPath947"><path
         d="m 167.201,184.515 h 8.8 v -24.554 h -8.8 z"
         id="path945"
         inkscape:connector-curvature="0" /></clipPath><clipPath
       clipPathUnits="userSpaceOnUse"
       id="clipPath963"><path
         d="m 172.037,189.715 h 10.791 v -27.941 h -10.791 z"
         id="path961"
         inkscape:connector-curvature="0" /></clipPath><clipPath
       clipPathUnits="userSpaceOnUse"
       id="clipPath983"><path
         d="m 179.107,253.188 h 21.734 v -8.255 h -21.734 z"
         id="path981"
         inkscape:connector-curvature="0" /></clipPath><clipPath
       clipPathUnits="userSpaceOnUse"
       id="clipPath1015"><path
         d="m 201.314,425.164 h 45.837 v -37.875 h -45.837 z"
         id="path1013"
         inkscape:connector-curvature="0" /></clipPath><clipPath
       clipPathUnits="userSpaceOnUse"
       id="clipPath1051"><path
         d="m 155.649,303.511 h 267.85 V 109.977 h -267.85 z"
         id="path1049"
         inkscape:connector-curvature="0" /></clipPath><clipPath
       clipPathUnits="userSpaceOnUse"
       id="clipPath1071"><path
         d="m 265.323,115.971 h 39.054 V 83.2072 h -39.054 z"
         id="path1069"
         inkscape:connector-curvature="0" /></clipPath><clipPath
       clipPathUnits="userSpaceOnUse"
       id="clipPath1103"><path
         d="m 201.842,242.737 h 21.734 v -8.255 h -21.734 z"
         id="path1101"
         inkscape:connector-curvature="0" /></clipPath><clipPath
       clipPathUnits="userSpaceOnUse"
       id="clipPath1187"><path
         d="m 121.987,344.828 h 152.17 v -21.449 h -152.17 z"
         id="path1185"
         inkscape:connector-curvature="0" /></clipPath><clipPath
       clipPathUnits="userSpaceOnUse"
       id="clipPath1211"><path
         d="m 239.358,420.351 h 45.836 v -37.875 h -45.836 z"
         id="path1209"
         inkscape:connector-curvature="0" /></clipPath><clipPath
       clipPathUnits="userSpaceOnUse"
       id="clipPath1247"><path
         d="M 0,500 H 500 V 0 H 0 Z"
         id="path1245"
         inkscape:connector-curvature="0" /></clipPath></defs><sodipodi:namedview
     pagecolor="#ffffff"
     bordercolor="#666666"
     borderopacity="1"
     objecttolerance="10"
     gridtolerance="10"
     guidetolerance="10"
     inkscape:pageopacity="0"
     inkscape:pageshadow="2"
     inkscape:window-width="1280"
     inkscape:window-height="692"
     id="namedview871"
     showgrid="false"
     inkscape:zoom="0.75899998"
     inkscape:cx="335.31148"
     inkscape:cy="240.91122"
     inkscape:window-x="1366"
     inkscape:window-y="0"
     inkscape:window-maximized="1"
     inkscape:current-layer="g877"
     fit-margin-top="0"
     fit-margin-left="0"
     fit-margin-right="0"
     fit-margin-bottom="0" /><g
     id="g877"
     inkscape:groupmode="layer"
     inkscape:label="2399859"
     transform="matrix(1.3333333,0,0,-1.3333333,-162.64933,488.34942)"><g
       id="g881"><g
         id="g883"
         clip-path="url(#clipPath887)"><g
           id="g889"><g
             id="g891" /><g
             id="g903"><g
               clip-path="url(#clipPath895)"
               id="g901"
               style="opacity:0.19999701"><g
                 transform="translate(83.0304,104.1276)"
                 id="g899" /></g></g></g></g></g><g
       id="g905"
       transform="matrix(-0.8589385,0,0,0.8169128,491.51011,11.359291)"><g
         id="g907"
         clip-path="url(#clipPath911)"><g
           id="g913"
           transform="translate(188.0988,74.3093)" /><g
           id="g917"
           transform="translate(129.7926,154.4909)" /><g
           id="g921"
           transform="translate(116.6911,66.1921)" /><g
           id="g925"
           transform="translate(233.1129,211.1345)"><path
             d="m 0,0 c -31.762,-6.048 -37.029,-28.397 -33.179,-45.396 0.988,-4.358 8.012,-19.388 -4.604,-15.319 -5.06,1.632 -6.579,8.586 -7.371,10.368 -6.288,14.158 -4.949,37.909 -10.941,35.834 -8.231,-2.848 -20.04,-13.153 -22.598,-19.826 -2.558,-6.672 28.959,-53.032 31.807,-63.546 2.849,-10.512 11.181,-0.88 14.374,0 3.192,0.881 17.961,14.649 44.995,8.951 z"
             style="fill:#61c8b6;fill-opacity:1;fill-rule:nonzero;stroke:none"
             id="path927"
             inkscape:connector-curvature="0" /></g><g
           id="g929"
           transform="translate(178.3917,192.8015)"><path
             d="m 0,0 c 2.061,2.565 -4.618,22.151 -8.972,24.467 -4.354,2.315 -3.892,-7.613 -3.892,-13.847 0,-6.233 -0.065,-15.238 3.892,-14.314 C -5.015,-2.771 -2.061,-2.565 0,0"
             style="fill:#033454;fill-opacity:1;fill-rule:nonzero;stroke:none"
             id="path931"
             inkscape:connector-curvature="0" /></g><g
           id="g933"
           transform="translate(174.4865,188.6911)"><path
             d="m 0,0 c 1.056,3.2 -10.245,27.698 -16.313,29.844 -6.068,2.146 -3.552,-10.578 -2.346,-18.624 1.206,-8.046 2.864,-19.681 7.793,-17.724 C -5.937,-4.546 -1.057,-3.2 0,0"
             style="fill:#033454;fill-opacity:1;fill-rule:nonzero;stroke:none"
             id="path935"
             inkscape:connector-curvature="0" /></g><g
           id="g937"
           transform="translate(167.444,182.5388)"><path
             d="m 0,0 c 2.146,4.308 -12.391,22.948 -17.962,24.072 -5.572,1.124 -1.795,-9.689 0.257,-16.575 2.052,-6.886 4.943,-16.852 9.011,-14.53 C -4.627,-4.711 -2.146,-4.308 0,0"
             style="fill:#033454;fill-opacity:1;fill-rule:nonzero;stroke:none"
             id="path939"
             inkscape:connector-curvature="0" /></g><g
           id="g941"><g
             id="g943" /><g
             id="g955"><g
               clip-path="url(#clipPath947)"
               id="g953"
               style="opacity:0.27999902"><g
                 transform="translate(175.9542,160.6569)"
                 id="g951"><path
                   d="M 0,0 C -3.155,7.563 -2.511,17.271 -7.89,23.695 -8.266,24.145 -8.971,23.568 -8.687,23.081 -4.443,15.796 -5.869,6.396 -1.06,-0.447 -0.714,-0.94 0.271,-0.65 0,0"
                   style="fill:#61c8b6;fill-opacity:1;fill-rule:nonzero;stroke:none"
                   id="path949"
                   inkscape:connector-curvature="0" /></g></g></g></g><g
           id="g957"><g
             id="g959" /><g
             id="g971"><g
               clip-path="url(#clipPath963)"
               id="g969"
               style="opacity:0.27999902"><g
                 transform="translate(182.7482,163.0388)"
                 id="g967"><path
                   d="m 0,0 c -2.058,4.702 -3.917,9.131 -5.16,14.131 -1.07,4.308 -2.057,8.333 -4.256,12.22 -0.376,0.666 -1.513,0.221 -1.258,-0.532 C -7.868,17.516 -7.906,5.382 -1.31,-1.011 -0.588,-1.71 0.364,-0.831 0,0"
                   style="fill:#61c8b6;fill-opacity:1;fill-rule:nonzero;stroke:none"
                   id="path965"
                   inkscape:connector-curvature="0" /></g></g></g></g><g
           id="g973"
           transform="translate(236.4953,251.5871)"><path
             d="m 0,0 c -3.037,-1.341 -4.691,-6.767 -6.629,-10.592 -1.975,-3.899 -4.843,-4.341 -5.975,-0.875 -5.296,16.226 -15.08,22.46 -28.677,18.954 -7.698,-1.985 -17.324,-0.052 -17.638,-5.657 -0.312,-5.606 2.826,-7.161 2.015,-9.122 -1.537,-3.721 1.411,-8.75 4.023,-9.234 2.612,-0.483 3.855,0.545 5.505,3.144 1.65,2.598 7.901,5.543 11.9,5.859 3.999,0.316 11.613,0.266 15.74,-11.039 3.708,-10.156 10.155,-8.432 14.371,-4.407 1.684,1.607 7.867,10.72 12.072,13.796"
             style="fill:#61c8b6;fill-opacity:1;fill-rule:nonzero;stroke:none"
             id="path975"
             inkscape:connector-curvature="0" /></g><g
           id="g977"><g
             id="g979" /><g
             id="g991"><g
               clip-path="url(#clipPath983)"
               id="g989"
               style="opacity:0.27999902"><g
                 transform="translate(200.841,252.8581)"
                 id="g987"><path
                   d="m 0,0 c 0,0 -12.291,-2.403 -14.072,-4.217 -1.781,-1.813 -6.914,-3.069 -7.046,-3.708 0,0 -0.073,0.761 -0.574,1.792 -0.502,1.03 3.686,0.779 4.463,1.585 C -14.854,-2.081 -2.844,1.426 0,0"
                   style="fill:#61c8b6;fill-opacity:1;fill-rule:nonzero;stroke:none"
                   id="path985"
                   inkscape:connector-curvature="0" /></g></g></g></g><g
           id="g993"
           transform="translate(179.0914,255.3093)"><path
             d="m 0,0 c -2.641,-1.521 -6.042,-4.805 -5.721,-7.1 0.32,-2.295 2.74,-1.031 5.099,-0.057 2.36,0.972 6.336,1.155 6.252,4.634 C 5.568,0.046 3.969,2.285 0,0"
             style="fill:#033454;fill-opacity:1;fill-rule:nonzero;stroke:none"
             id="path995"
             inkscape:connector-curvature="0" /></g><g
           id="g997"
           transform="translate(181.8063,243.9011)"><path
             d="m 0,0 c -2.44,-1.825 -5.423,-5.493 -4.83,-7.733 0.593,-2.241 2.844,-0.696 5.07,0.552 2.226,1.249 6.152,1.907 5.652,5.351 C 5.523,0.713 3.667,2.744 0,0"
             style="fill:#033454;fill-opacity:1;fill-rule:nonzero;stroke:none"
             id="path999"
             inkscape:connector-curvature="0" /></g><g
           id="g1001"
           transform="translate(247.1515,410.8679)"><path
             d="m 0,0 c 0,-13.021 -10.555,-23.576 -23.576,-23.576 -13.02,0 -23.575,10.555 -23.575,23.576 0,13.021 10.555,23.576 23.575,23.576 C -10.555,23.576 0,13.021 0,0"
             style="fill:#f7f2ec;fill-opacity:1;fill-rule:nonzero;stroke:none"
             id="path1003"
             inkscape:connector-curvature="0" /></g><g
           id="g1005"
           transform="translate(239.1998,415.9387)"><path
             d="m 0,0 c 0,-9.792 -7.938,-17.73 -17.73,-17.73 -9.792,0 -17.73,7.938 -17.73,17.73 0,9.792 7.938,17.73 17.73,17.73 C -7.938,17.73 0,9.792 0,0"
             style="fill:#033454;fill-opacity:1;fill-rule:nonzero;stroke:none"
             id="path1007"
             inkscape:connector-curvature="0" /></g><g
           id="g1009"><g
             id="g1011" /><g
             id="g1023"><g
               clip-path="url(#clipPath1015)"
               id="g1021"><g
                 transform="translate(247.1505,410.8654)"
                 id="g1019"><path
                   d="m 0,0 c 0,-13.017 -10.551,-23.576 -23.576,-23.576 -10.293,0 -19.054,6.604 -22.26,15.806 4.305,-5.638 11.101,-9.277 18.746,-9.277 13.016,0 23.576,10.551 23.576,23.576 0,2.723 -0.458,5.338 -1.316,7.77 C -1.799,10.335 0,5.38 0,0"
                   style="fill:#dee3d0;fill-opacity:1;fill-rule:nonzero;stroke:none"
                   id="path1017"
                   inkscape:connector-curvature="0" /></g></g></g></g><g
           id="g1025"
           transform="translate(239.6691,422.4523)"><path
             d="m 0,0 c 0,-4.495 -3.644,-8.138 -8.138,-8.138 -4.494,0 -8.137,3.643 -8.137,8.138 0,4.494 3.643,8.138 8.137,8.138 C -3.644,8.138 0,4.494 0,0"
             style="fill:#f7f2ec;fill-opacity:1;fill-rule:nonzero;stroke:none"
             id="path1027"
             inkscape:connector-curvature="0" /></g><g
           id="g1029"
           transform="translate(279.4567,444.4382)" /><g
           id="g1033"
           transform="translate(236.736,451.1735)" /><g
           id="g1037"
           transform="translate(121.987,340.9059)"><path
             d="M 0,0 C 0,0 35.205,71.42 59.017,76.432 82.828,81.443 189.51,57.856 193.725,31.033 197.739,5.49 167.668,-65.916 164.985,-72.43 c -2.682,-6.514 -4.981,-10.346 -0.766,-14.178 4.216,-3.832 33.721,-41.002 36.787,-52.115 3.065,-11.112 7.664,-6.131 13.028,0 5.365,6.131 54.03,56.33 78.939,67.826 24.907,11.496 13.839,-3.119 4.95,-16.821 -10.912,-16.824 -21.268,-66.357 -42.133,-93.196 -16.863,-21.691 -45.032,-64.964 -116.096,-44.794 -66.609,18.906 -41.42,109.796 -23.757,144.082 13.028,25.29 1.916,27.589 1.916,27.589 0,0 -44.834,-4.758 -70.509,0.766 -9.744,2.098 -19.688,29.719 -24.151,37.157 0,0 -21.036,5.37 -23.193,16.114"
             style="fill:#61c8b6;fill-opacity:1;fill-rule:nonzero;stroke:none"
             id="path1039"
             inkscape:connector-curvature="0" /></g><g
           id="g1041"
           transform="translate(411.3112,244.6784)"><path
             d="m 0,0 c -9.65,-14.618 -18.552,-29.283 -26.51,-44.894 -10.045,-19.705 -22.825,-41.112 -45.86,-46.779 -21.07,-5.184 -48.633,0.489 -65.63,14.002 -9.065,7.207 -14.108,17.013 -15.431,28.466 -1.414,12.245 0.926,24.431 0.55,36.675 -0.289,9.38 -4.784,38.697 -17.398,33.784 -0.837,-2.02 -1.86,-4.229 -3.109,-6.653 -17.662,-34.286 -42.851,-125.175 23.758,-144.081 71.064,-20.17 99.233,23.102 116.096,44.793 20.865,26.839 31.221,76.373 42.133,93.197 1.874,2.888 3.841,5.815 5.551,8.532 C 8.85,12.333 4.375,6.625 0,0"
             style="fill:#49b8b6;fill-opacity:1;fill-rule:nonzero;stroke:none"
             id="path1043"
             inkscape:connector-curvature="0" /></g><g
           id="g1045"><g
             id="g1047" /><g
             id="g1059"><g
               clip-path="url(#clipPath1051)"
               id="g1057"
               style="opacity:0.08999628"><g
                 transform="translate(336.7242,140.3434)"
                 id="g1055"><path
                   d="m 0,0 c -98.507,-28.722 -97.039,68.925 -96.213,84.236 0.72,13.337 3.216,25.668 7.389,38.274 3.285,9.922 14.778,27.293 -2.585,28.71 -20.338,1.661 -42.416,-0.446 -62.691,0.078 -11.157,0.288 -19.789,4.817 -26.975,11.869 4.175,-7.82 8.951,-14.856 13.682,-15.875 25.674,-5.525 70.508,-0.766 70.508,-0.766 0,0 11.113,-2.299 -1.916,-27.59 -17.662,-34.286 -42.851,-125.175 23.758,-144.082 71.064,-20.169 99.232,23.103 116.096,44.794 20.865,26.839 31.22,76.373 42.133,93.197 1.188,1.831 2.415,3.678 3.588,5.477 C 70.57,107.211 50.898,14.841 0,0"
                   style="fill:#61c8b6;fill-opacity:1;fill-rule:nonzero;stroke:none"
                   id="path1053"
                   inkscape:connector-curvature="0" /></g></g></g></g><g
           id="g1061"
           transform="translate(270.7408,198.7497)"><path
             d="m 0,0 c -29.457,-21.425 -20.541,-57.938 11.218,-76.241 3.697,-2.131 -0.465,-14.133 -6.978,-16.637 -17.404,-6.688 -25.487,-22.822 -25.487,-22.822 0,0 50.709,-11.234 60.92,-9.184 8.806,1.768 5.168,9.341 12.015,20.235 4.202,6.683 4.101,11.877 -1.037,17.015 -5.137,5.138 -8.103,43.436 9.023,49.001"
             style="fill:#61c8b6;fill-opacity:1;fill-rule:nonzero;stroke:none"
             id="path1063"
             inkscape:connector-curvature="0" /></g><g
           id="g1065"><g
             id="g1067" /><g
             id="g1079"><g
               clip-path="url(#clipPath1071)"
               id="g1077"
               style="opacity:0.27999902"><g
                 transform="translate(303.5221,115.3806)"
                 id="g1075"><path
                   d="m 0,0 c -1.153,-6.059 -2.299,-11.839 -4.754,-17.407 -2.189,-4.966 -5.652,-9.062 -7.684,-14.074 -0.167,-0.412 0.174,-0.858 0.54,-0.631 8.468,5.249 12.835,21.529 12.752,31.977 C 0.849,0.423 0.108,0.572 0,0 m -13.065,-0.289 c -0.837,-6.743 -5.539,-12.595 -9.606,-17.131 -4.562,-5.091 -9.439,-10.228 -14.594,-14.489 -0.55,-0.455 -1.136,0.407 -0.865,1.009 2.648,5.867 7.423,9.644 11.714,13.767 5.309,5.102 8.79,10.539 12.267,17.377 0.37,0.727 1.174,0.196 1.084,-0.533"
                   style="fill:#61c8b6;fill-opacity:1;fill-rule:nonzero;stroke:none"
                   id="path1073"
                   inkscape:connector-curvature="0" /></g></g></g></g><g
           id="g1081"
           transform="translate(269.5084,84.697)"><path
             d="M 0,0 C 5.366,3.834 -7.889,17.69 -18.646,5.26 -29.404,-7.171 -25.579,-15.407 -20.559,-14.636 -15.538,-13.865 -5.02,-3.585 0,0"
             style="fill:#033454;fill-opacity:1;fill-rule:nonzero;stroke:none"
             id="path1083"
             inkscape:connector-curvature="0" /></g><g
           id="g1085"
           transform="translate(292.3785,82.2302)"><path
             d="M 0,0 C 5.792,4.573 -11.293,20.759 -22.904,5.927 -34.515,-8.904 -31.26,-21.059 -25.841,-20.138 -20.423,-19.218 -5.419,-4.279 0,0"
             style="fill:#033454;fill-opacity:1;fill-rule:nonzero;stroke:none"
             id="path1087"
             inkscape:connector-curvature="0" /></g><g
           id="g1089"
           transform="translate(311.6569,77.3093)"><path
             d="M 0,0 C 5.152,3.68 -9.396,18.022 -19.724,6.088 -30.052,-5.848 -24.558,-14.793 -19.737,-14.053 -14.918,-13.313 -4.819,-3.443 0,0"
             style="fill:#033454;fill-opacity:1;fill-rule:nonzero;stroke:none"
             id="path1091"
             inkscape:connector-curvature="0" /></g><g
           id="g1093"
           transform="translate(259.2301,241.1364)"><path
             d="m 0,0 c -3.037,-1.341 -4.69,-6.768 -6.63,-10.593 -1.975,-3.898 -4.842,-4.341 -5.974,-0.874 -5.296,16.226 -15.08,22.459 -28.677,18.953 -7.698,-1.984 -17.324,-0.051 -17.638,-5.657 -0.312,-5.604 2.826,-7.159 2.015,-9.121 -1.537,-3.722 1.411,-8.751 4.023,-9.234 2.612,-0.484 3.855,0.545 5.505,3.143 1.65,2.599 7.901,5.543 11.9,5.86 3.999,0.316 11.612,0.265 15.74,-11.039 3.708,-10.156 10.155,-8.431 14.371,-4.408 1.684,1.608 7.867,10.721 12.072,13.796"
             style="fill:#61c8b6;fill-opacity:1;fill-rule:nonzero;stroke:none"
             id="path1095"
             inkscape:connector-curvature="0" /></g><g
           id="g1097"><g
             id="g1099" /><g
             id="g1111"><g
               clip-path="url(#clipPath1103)"
               id="g1109"
               style="opacity:0.27999902"><g
                 transform="translate(223.5758,242.4069)"
                 id="g1107"><path
                   d="m 0,0 c 0,0 -12.291,-2.403 -14.072,-4.217 -1.781,-1.813 -6.914,-3.069 -7.046,-3.708 0,0 -0.073,0.761 -0.574,1.792 -0.502,1.031 3.686,0.779 4.463,1.585 C -14.854,-2.081 -2.844,1.426 0,0"
                   style="fill:#61c8b6;fill-opacity:1;fill-rule:nonzero;stroke:none"
                   id="path1105"
                   inkscape:connector-curvature="0" /></g></g></g></g><g
           id="g1113"
           transform="translate(201.8263,244.8581)"><path
             d="m 0,0 c -2.641,-1.521 -6.042,-4.805 -5.722,-7.1 0.321,-2.295 2.741,-1.031 5.1,-0.057 2.36,0.972 6.336,1.155 6.252,4.635 C 5.568,0.046 3.969,2.285 0,0"
             style="fill:#033454;fill-opacity:1;fill-rule:nonzero;stroke:none"
             id="path1115"
             inkscape:connector-curvature="0" /></g><g
           id="g1117"
           transform="translate(204.5412,233.4499)"><path
             d="m 0,0 c -2.44,-1.825 -5.423,-5.493 -4.83,-7.733 0.593,-2.241 2.844,-0.696 5.07,0.553 2.226,1.248 6.152,1.906 5.652,5.35 C 5.523,0.714 3.667,2.744 0,0"
             style="fill:#033454;fill-opacity:1;fill-rule:nonzero;stroke:none"
             id="path1119"
             inkscape:connector-curvature="0" /></g><g
           id="g1121"
           transform="translate(129.9586,331.2853)"><path
             d="m 0,0 c 0.724,-8.137 7.411,-19.915 10.61,-18.549 2.153,0.919 2.051,7.768 2.541,12.658 C 5.939,-3.723 0,0 0,0"
             style="fill:#f7f2ec;fill-opacity:1;fill-rule:nonzero;stroke:none"
             id="path1123"
             inkscape:connector-curvature="0" /></g><g
           id="g1125"
           transform="translate(137.4913,327.4523)"><path
             d="m 0,0 c -0.223,-4.986 1.141,-10.024 2.96,-14.75 0.039,0.013 0.08,0.018 0.117,0.034 2.153,0.919 2.051,7.768 2.542,12.658 C 3.611,-1.455 1.71,-0.73 0,0"
             style="fill:#e2ddc5;fill-opacity:1;fill-rule:nonzero;stroke:none"
             id="path1127"
             inkscape:connector-curvature="0" /></g><g
           id="g1129"
           transform="translate(156.3463,323.2975)"><path
             d="m 0,0 c 1.215,-8.078 7.708,-19.876 10.819,-18.319 3.112,1.556 0.175,14.748 2.933,17.673 C 16.51,2.277 0,0 0,0"
             style="fill:#f7f2ec;fill-opacity:1;fill-rule:nonzero;stroke:none"
             id="path1131"
             inkscape:connector-curvature="0" /></g><g
           id="g1133"
           transform="translate(163.5519,324.029)"><path
             d="m 0,0 c 0.911,-6.131 3.239,-12.896 1.452,-18.545 0.807,-0.596 1.55,-0.812 2.162,-0.506 3.111,1.556 0.174,14.749 2.932,17.673 C 8.011,0.174 4.044,0.26 0,0"
             style="fill:#e2ddc5;fill-opacity:1;fill-rule:nonzero;stroke:none"
             id="path1135"
             inkscape:connector-curvature="0" /></g><g
           id="g1137"
           transform="translate(196.0836,324.864)"><path
             d="M 0,0 C 2.102,-10.858 8.407,-21.825 10.623,-15.907 12.839,-9.99 14.851,-1.669 14.843,0.01 14.836,1.688 0,0 0,0"
             style="fill:#f7f2ec;fill-opacity:1;fill-rule:nonzero;stroke:none"
             id="path1139"
             inkscape:connector-curvature="0" /></g><g
           id="g1141"
           transform="translate(204.6642,325.5568)"><path
             d="m 0,0 c 1.494,-6.006 1.491,-12.289 -0.608,-17.967 1.083,-0.625 2.028,-0.295 2.65,1.367 2.217,5.917 4.229,14.238 4.221,15.917 C 6.26,0.068 3.285,0.145 0,0"
             style="fill:#e2ddc5;fill-opacity:1;fill-rule:nonzero;stroke:none"
             id="path1143"
             inkscape:connector-curvature="0" /></g><g
           id="g1145"
           transform="translate(219.6193,325.2087)"><path
             d="m 0,0 c 3.038,-7.08 9.447,-14.121 10.737,-8.179 1.29,5.942 0.324,9.666 0.324,9.666 z"
             style="fill:#f7f2ec;fill-opacity:1;fill-rule:nonzero;stroke:none"
             id="path1147"
             inkscape:connector-curvature="0" /></g><g
           id="g1149"
           transform="translate(227.7028,326.2951)"><path
             d="m 0,0 c 0.492,-3.487 1.557,-6.774 1.267,-10.481 -0.025,-0.32 -0.066,-0.636 -0.101,-0.954 0.681,0.195 1.206,0.873 1.487,2.169 1.29,5.942 0.324,9.666 0.324,9.666 z"
             style="fill:#e2ddc5;fill-opacity:1;fill-rule:nonzero;stroke:none"
             id="path1151"
             inkscape:connector-curvature="0" /></g><g
           id="g1153"
           transform="translate(174.298,323.779)"><path
             d="m 0,0 c 3.621,-8.148 10.776,-16.553 11.768,-10.054 0.991,6.498 -0.25,10.728 -0.25,10.728 z"
             style="fill:#f7f2ec;fill-opacity:1;fill-rule:nonzero;stroke:none"
             id="path1155"
             inkscape:connector-curvature="0" /></g><g
           id="g1157"
           transform="translate(182.214,324.2419)"><path
             d="m 0,0 c 1.718,-4.08 2.341,-8.411 2.378,-12.805 0.725,0.137 1.253,0.841 1.474,2.288 0.991,6.498 -0.25,10.728 -0.25,10.728 z"
             style="fill:#e2ddc5;fill-opacity:1;fill-rule:nonzero;stroke:none"
             id="path1159"
             inkscape:connector-curvature="0" /></g><g
           id="g1161"
           transform="translate(237.4489,326.6935)"><path
             d="m 0,0 c 1.115,-5.325 4.568,-11.093 6.29,-7.16 1.722,3.932 1.574,6.645 1.574,6.645 z"
             style="fill:#f7f2ec;fill-opacity:1;fill-rule:nonzero;stroke:none"
             id="path1163"
             inkscape:connector-curvature="0" /></g><g
           id="g1165"
           transform="translate(242.5558,326.3591)"><path
             d="m 0,0 c -0.075,-2.756 -0.323,-5.391 -0.879,-7.939 0.775,-0.404 1.508,-0.151 2.062,1.113 1.722,3.933 1.574,6.645 1.574,6.645 z"
             style="fill:#e2ddc5;fill-opacity:1;fill-rule:nonzero;stroke:none"
             id="path1167"
             inkscape:connector-curvature="0" /></g><g
           id="g1169"
           transform="translate(249.4943,327.2057)"><path
             d="m 0,0 c 0.01,-6.232 3.086,-9.558 4.67,-6.503 1.585,3.055 2.124,6.163 2.124,6.163 z"
             style="fill:#f7f2ec;fill-opacity:1;fill-rule:nonzero;stroke:none"
             id="path1171"
             inkscape:connector-curvature="0" /></g><g
           id="g1173"
           transform="translate(253.902,326.985)"><path
             d="m 0,0 c 0.015,-2.626 -0.476,-5.075 -1.415,-7.396 0.611,-0.122 1.21,0.211 1.678,1.114 1.585,3.055 2.124,6.162 2.124,6.162 z"
             style="fill:#e2ddc5;fill-opacity:1;fill-rule:nonzero;stroke:none"
             id="path1175"
             inkscape:connector-curvature="0" /></g><g
           id="g1177"
           transform="translate(145.1798,324.7922)"><path
             d="M 0,0 C 19.539,-4.614 99.233,3.719 114.889,1.764 127.671,0.167 129.726,17.389 128.776,22.492 117.491,25.498 110.44,36.146 69.504,33.557 0,29.161 0,0 0,0"
             style="fill:#61c8b6;fill-opacity:1;fill-rule:nonzero;stroke:none"
             id="path1179"
             inkscape:connector-curvature="0" /></g><g
           id="g1181"><g
             id="g1183" /><g
             id="g1195"><g
               clip-path="url(#clipPath1187)"
               id="g1193"
               style="opacity:0.30000299"><g
                 transform="translate(265.0524,332.0598)"
                 id="g1191"><path
                   d="m 0,0 c -4.639,-2.274 -9.988,-2.425 -15.048,-2.621 -7.144,-0.277 -14.269,-0.63 -21.4,-1.156 -14.577,-1.074 -29.197,-1.564 -43.814,-1.736 -12.735,-0.149 -34.422,-3.168 -42.216,0.276 -3.013,1.33 -5.688,2.24 -8.576,3.858 -2.716,1.521 -5.795,2.825 -8.112,4.966 -1.792,1.655 -2.491,3.837 -3.625,5.81 -0.178,-0.355 -0.274,-0.551 -0.274,-0.551 2.074,-10.334 21.606,-15.693 23.093,-16.087 0.04,-0.005 0.066,-0.004 0.1,-0.007 0,-0.003 -0.001,-0.019 -0.001,-0.019 19.54,-4.615 99.233,3.718 114.89,1.763 C 6.182,-6.898 9.162,6.065 9.104,12.768 7.797,7.435 5.052,2.477 0,0"
                   style="fill:#61c8b6;fill-opacity:1;fill-rule:nonzero;stroke:none"
                   id="path1189"
                   inkscape:connector-curvature="0" /></g></g></g></g><g
           id="g1197"
           transform="translate(285.1949,406.0549)"><path
             d="m 0,0 c 0,-13.021 -10.555,-23.576 -23.575,-23.576 -13.021,0 -23.576,10.555 -23.576,23.576 0,13.021 10.555,23.576 23.576,23.576 C -10.555,23.576 0,13.021 0,0"
             style="fill:#f7f2ec;fill-opacity:1;fill-rule:nonzero;stroke:none"
             id="path1199"
             inkscape:connector-curvature="0" /></g><g
           id="g1201"
           transform="translate(275.8336,410.8664)"><path
             d="m 0,0 c 0,-9.792 -7.937,-17.73 -17.73,-17.73 -9.792,0 -17.73,7.938 -17.73,17.73 0,9.792 7.938,17.73 17.73,17.73 C -7.937,17.73 0,9.792 0,0"
             style="fill:#033454;fill-opacity:1;fill-rule:nonzero;stroke:none"
             id="path1203"
             inkscape:connector-curvature="0" /></g><g
           id="g1205"><g
             id="g1207" /><g
             id="g1219"><g
               clip-path="url(#clipPath1211)"
               id="g1217"><g
                 transform="translate(285.194,406.0524)"
                 id="g1215"><path
                   d="m 0,0 c 0,-13.017 -10.551,-23.576 -23.576,-23.576 -10.293,0 -19.054,6.604 -22.26,15.806 4.305,-5.638 11.101,-9.277 18.746,-9.277 13.017,0 23.576,10.551 23.576,23.576 0,2.723 -0.458,5.338 -1.316,7.77 C -1.799,10.334 0,5.379 0,0"
                   style="fill:#dee3d0;fill-opacity:1;fill-rule:nonzero;stroke:none"
                   id="path1213"
                   inkscape:connector-curvature="0" /></g></g></g></g><g
           id="g1221"
           transform="translate(279.4205,415.1974)"><path
             d="m 0,0 c 0,-4.987 -4.044,-9.03 -9.03,-9.03 -4.988,0 -9.031,4.043 -9.031,9.03 0,4.987 4.043,9.03 9.031,9.03 C -4.044,9.03 0,4.987 0,0"
             style="fill:#f7f2ec;fill-opacity:1;fill-rule:nonzero;stroke:none"
             id="path1223"
             inkscape:connector-curvature="0" /></g><g
           id="g1225"
           transform="translate(174.9621,395.9206)"><path
             d="m 0,0 c -2.024,-1.78 -2.979,-4.794 -3.417,-6.192 -0.6,-1.913 0.775,-2.413 1.723,-1.665 1.905,1.505 3.646,5.54 3.896,6.746 C 2.302,-0.628 1.692,1.489 0,0 m -4.834,0.812 c -0.989,-2.206 -1.814,-4.449 -3.623,-6.125 -0.907,-0.841 -2.158,0.03 -1.95,1.153 0.495,2.678 1.806,4.89 3.906,6.434 2.117,1.557 1.85,-1.053 1.667,-1.462"
             style="fill:#033454;fill-opacity:1;fill-rule:nonzero;stroke:none"
             id="path1227"
             inkscape:connector-curvature="0" /></g><g
           id="g1229"
           transform="translate(296.6735,241.8825)"><path
             d="m 0,0 c -1.373,-2.284 -2.393,-5.228 -3.01,-6.601 -4.155,-9.248 -7.132,-19.025 -8.817,-29.022 -0.111,-0.663 0.071,-1.649 0.737,-1.551 0.197,0.029 0.361,0.164 0.514,0.294 7.962,6.816 14.965,14.741 20.779,23.46 C 6.751,-8.698 3.195,-4.048 0,0 m -5.656,36.503 c 1.362,3.405 2.972,7.502 4.711,12.075 -0.159,0.126 -0.321,0.242 -0.492,0.339 -3.973,2.269 -12.255,0.137 -16.522,-0.515 -6.272,-0.957 -18.42,-2.158 -18.42,-4.677 0,-2.519 17.973,-5.714 21.451,-6.019 2.265,-0.198 5.985,-1.039 9.272,-1.203 M -25.62,-7.903 c 3.231,-0.499 6.028,2.104 8.257,4.497 3.584,3.847 7.168,7.694 10.752,11.541 -1.805,2.136 -3.17,3.656 -3.857,4.281 -2.23,2.027 -2.628,4.06 -2.117,6.486 -0.702,-0.506 -1.406,-1.264 -2.116,-2.341 -3.736,-5.663 -6.554,-12.235 -9.75,-18.223 -0.784,-1.464 -1.57,-2.932 -2.17,-4.48 -0.136,-0.351 -0.263,-0.746 -0.118,-1.093 0.174,-0.42 0.67,-0.599 1.119,-0.668 m 62.615,-34.418 c 1.6,-4.737 4.757,-9.939 6.419,-13.157 0.522,-1.008 1.18,-2.109 2.281,-2.383 1.038,-0.259 2.108,0.328 2.883,1.064 3.067,2.913 3.057,7.718 2.829,11.941 -0.278,5.167 -0.555,10.334 -0.834,15.501 -0.018,0.35 -0.052,0.734 -0.298,0.984 -0.011,0.013 -0.028,0.017 -0.042,0.029 -5.593,-5.64 -9.561,-9.844 -10.885,-11.357 -0.802,-0.917 -1.587,-1.807 -2.353,-2.622 m -16.509,-1.874 c 1.604,2.493 3.02,5.142 4.595,7.658 -1.76,3.763 -4.929,8.87 -8.696,14.39 -0.788,-0.687 -1.554,-1.754 -2.28,-3.304 -4.074,-8.708 -7.644,-26.63 -6.742,-28.65 0.903,-2.02 10.055,5.131 13.123,9.906 m 46.95,10.174 c 0.624,-0.713 1.378,-1.478 2.326,-1.465 0.737,0.009 2.398,17.351 -1.634,24.555 -3.786,-3.553 -7.395,-7.024 -10.7,-10.263 2.649,-4.993 7.536,-10.011 10.008,-12.827 m -80.895,141.882 c -0.837,0.039 -1.747,0.058 -2.424,-0.436 -0.936,-0.685 -1.014,-2.126 -0.488,-3.16 0.525,-1.035 1.496,-1.757 2.433,-2.441 5.064,-3.696 10.128,-7.392 15.193,-11.088 3.229,-2.357 6.52,-4.738 10.122,-6.424 2.267,7.506 4.265,14.969 5.701,21.863 -8.857,2.872 -21.401,1.252 -30.537,1.686 M 110.621,5.672 c 1.149,0.138 5.602,13.818 5.129,21.194 -2.853,-1.508 -5.955,-3.434 -9.227,-5.678 0.017,-7.264 3.076,-15.639 4.098,-15.516 M 96.607,-5.919 c 0.341,-0.74 0.815,-1.57 1.622,-1.687 1.225,-0.177 1.921,1.342 2.155,2.557 1.365,7.086 1.203,14.457 -0.435,21.484 -2.914,-2.203 -5.906,-4.581 -8.929,-7.074 1.041,-5.217 3.481,-10.708 5.587,-15.28 M -24.107,69.835 c -0.752,-2.246 16.587,-10.331 25.513,-14.98 1.857,5.028 3.788,10.444 5.668,16.022 -8.299,1.401 -30.439,1.175 -31.181,-1.042 m 98.308,-75.14 c 3.083,2.816 6.236,5.633 9.403,8.384 1.294,-2.297 2.005,-5.639 2.469,-8.183 0.505,-2.767 2.256,-16.608 0.528,-18.08 -1.219,-1.037 -10.238,9.165 -12.4,17.879"
             style="fill:#033454;fill-opacity:1;fill-rule:nonzero;stroke:none"
             id="path1231"
             inkscape:connector-curvature="0" /></g><g
           id="g1233"
           transform="translate(405.4225,54.8386)" /><g
           id="g1237"
           transform="translate(404.6823,76.6003)" /></g></g></g></svg>