<?xml version="1.0" encoding="UTF-8" standalone="no"?>
<!-- Created with Inkscape (http://www.inkscape.org/) -->

<svg
   xmlns:dc="http://purl.org/dc/elements/1.1/"
   xmlns:cc="http://creativecommons.org/ns#"
   xmlns:rdf="http://www.w3.org/1999/02/22-rdf-syntax-ns#"
   xmlns:svg="http://www.w3.org/2000/svg"
   xmlns="http://www.w3.org/2000/svg"
   xmlns:sodipodi="http://sodipodi.sourceforge.net/DTD/sodipodi-0.dtd"
   xmlns:inkscape="http://www.inkscape.org/namespaces/inkscape"
   width="67.410683mm"
   height="63.020901mm"
   viewBox="0 0 67.410683 63.020901"
   version="1.1"
   id="svg1911"
   inkscape:version="0.92.4 (33fec40, 2019-01-16)"
   sodipodi:docname="drawing.svg">
  <defs
     id="defs1905" />
  <sodipodi:namedview
     id="base"
     pagecolor="#ffffff"
     bordercolor="#666666"
     borderopacity="1.0"
     inkscape:pageopacity="0.0"
     inkscape:pageshadow="2"
     inkscape:zoom="1.4"
     inkscape:cx="117.18847"
     inkscape:cy="102.98763"
     inkscape:document-units="mm"
     inkscape:current-layer="layer1"
     showgrid="false"
     fit-margin-top="0"
     fit-margin-left="0"
     fit-margin-right="0"
     fit-margin-bottom="0"
     inkscape:window-width="1315"
     inkscape:window-height="713"
     inkscape:window-x="51"
     inkscape:window-y="27"
     inkscape:window-maximized="1" />
  <metadata
     id="metadata1908">
    <rdf:RDF>
      <cc:Work
         rdf:about="">
        <dc:format>image/svg+xml</dc:format>
        <dc:type
           rdf:resource="http://purl.org/dc/dcmitype/StillImage" />
        <dc:title></dc:title>
      </cc:Work>
    </rdf:RDF>
  </metadata>
  <g
     inkscape:label="Layer 1"
     inkscape:groupmode="layer"
     id="layer1"
     transform="translate(-45.66966,-40.215738)">
    <path
       d="m 58.925035,65.906125 c -1.249184,-1.32715 -2.292354,-2.96933 -3.312234,-4.51768 -0.6537,-0.99236 -1.90288,-2.29728 -1.69157,-3.78107 0.1711,-1.19874 1.19416,-1.827739 2.17065,-1.887712 1.76141,-0.10795 3.644542,0.603252 5.22534,1.139122 1.870075,0.63323 3.643135,1.4605 5.334,2.45674 0.316089,0.18592 0.386998,0.52635 0.308327,0.85337 0.137937,0.71614 -0.206021,1.48731 -0.803275,2.22568 -1.090436,1.34726 -2.638071,3.07939 -4.069996,3.96381 -1.265415,0.78211 -2.301875,0.46037 -3.161242,-0.45226"
       style="fill:#033454;fill-opacity:1;fill-rule:nonzero;stroke:none;stroke-width:0.35277775"
       id="path203"
       inkscape:connector-curvature="0" />
    <path
       d="m 55.857881,72.898285 c -1.50319,-1.00542 -2.87796,-2.32834 -4.20935,-3.56941 -0.85337,-0.79551 -2.35197,-1.78117 -2.47897,-3.15595 -0.10266,-1.11054 0.74507,-1.83868 1.67499,-2.04505 1.67746,-0.37253 3.65549,-0.0226 5.3026,0.21519 1.94804,0.28117 3.845989,0.75283 5.701954,1.3903 0.346778,0.11924 0.491418,0.41593 0.488595,0.7239 0.293158,0.62618 0.13335,1.37724 -0.279045,2.13819 -0.752124,1.38818 -1.860199,3.19581 -3.045884,4.21922 -1.0474,0.90452 -2.1209,0.77505 -3.15489,0.0836"
       style="fill:#033454;fill-opacity:1;fill-rule:nonzero;stroke:none;stroke-width:0.35277775"
       id="path207"
       inkscape:connector-curvature="0" />
    <path
       d="m 54.021991,79.811565 c -1.71592,-0.57115 -3.39232,-1.48202 -5.00522,-2.32622 -1.03328,-0.54081 -2.73931,-1.09361 -3.2265,-2.38583 -0.39335,-1.04352 0.23072,-1.97062 1.0728,-2.41618 1.51906,-0.80327 3.51895,-0.9906 5.17031,-1.19768 1.95262,-0.24483 3.90737,-0.29316 5.86634,-0.17039 0.36583,0.0226 0.58385,0.27058 0.66287,0.56832 0.448733,0.52635 0.493889,1.29223 0.298098,2.13537 -0.357368,1.53811 -0.947208,3.57505 -1.818568,4.87574 -0.77082,1.1497 -1.84009,1.30986 -3.02013,0.91687"
       style="fill:#033454;fill-opacity:1;fill-rule:nonzero;stroke:none;stroke-width:0.35277775"
       id="path211"
       inkscape:connector-curvature="0" />
    <path
       d="m 57.797101,85.237215 c -1.80728,0.0699 -3.69676,-0.19262 -5.50369,-0.41487 -1.15782,-0.14216 -2.94922,-0.0589 -3.86009,-1.09678 -0.73554,-0.8382 -0.47766,-1.92582 0.15346,-2.63913 1.13876,-1.28694 2.94463,-2.16641 4.41713,-2.94146 1.74166,-0.91723 3.55423,-1.65065 5.43101,-2.22568 0.350309,-0.10724 0.641705,0.0476 0.820563,0.2988 0.605012,0.33444 0.916517,1.03576 1.030462,1.89372 0.207434,1.56527 0.372534,3.67947 0.01482,5.20382 -0.316442,1.34761 -1.260827,1.8736 -2.503665,1.92158"
       style="fill:#033454;fill-opacity:1;fill-rule:nonzero;stroke:none;stroke-width:0.35277775"
       id="path215"
       inkscape:connector-curvature="0" />
    <path
       d="m 60.554551,89.441975 c -1.737431,0.50094 -3.63502,0.69885 -5.4423,0.91652 -1.15817,0.13934 -2.87761,0.64946 -4.01073,-0.1397 -0.91511,-0.63747 -0.92534,-1.75507 -0.48366,-2.59892 0.79727,-1.52223 2.33962,-2.80882 3.58351,-3.91477 1.47073,-1.3074 3.05471,-2.45428 4.739222,-3.46252 0.31397,-0.18803 0.634293,-0.10724 0.868185,0.0935 0.667457,0.17957 1.138415,0.78599 1.454502,1.59174 0.57644,1.46967 1.243542,3.48262 1.261533,5.04825 0.01588,1.3843 -0.7747,2.12125 -1.970262,2.46591"
       style="fill:#033454;fill-opacity:1;fill-rule:nonzero;stroke:none;stroke-width:0.35277775"
       id="path219"
       inkscape:connector-curvature="0" />
    <path
       d="m 62.971292,95.698455 c -1.737783,0.50094 -3.635375,0.69885 -5.442301,0.91687 -1.15817,0.13899 -2.87761,0.64911 -4.01073,-0.14006 -0.91511,-0.63711 -0.92534,-1.75471 -0.48366,-2.59856 0.79728,-1.52223 2.33962,-2.80917 3.58352,-3.91513 1.47072,-1.30739 3.054698,-2.45427 4.738859,-3.46216 0.314325,-0.18838 0.634648,-0.10759 0.868539,0.0931 0.667457,0.17992 1.138061,0.78599 1.454502,1.59174 0.57644,1.47002 1.243542,3.48262 1.261534,5.0486 0.01588,1.38395 -0.7747,2.1209 -1.970263,2.46556"
       style="fill:#033454;fill-opacity:1;fill-rule:nonzero;stroke:none;stroke-width:0.35277775"
       id="path223"
       inkscape:connector-curvature="0" />
    <path
       d="m 112.04479,69.799235 c -2.47791,6.94373 -9.2015,12.92119 -15.952253,17.58315 -12.353572,8.53052 -29.129214,18.274235 -39.942906,2.56082 -10.81335,-15.71308 -2.17559,-25.0698 12.879207,-38.224888 16.082433,-14.053259 24.32438,-16.201669 38.001922,-1.002242 1.27671,1.418872 2.32728,2.818342 3.17289,4.195939 0,0 4.97381,6.835421 1.84114,14.887221"
       style="fill:#61c8b6;fill-opacity:1;fill-rule:nonzero;stroke:none;stroke-width:0.35277775"
       id="path287"
       inkscape:connector-curvature="0" />
    <path
       d="m 73.320028,65.723525 c 2.261658,1.48978 2.887485,4.53073 1.397703,6.79274 -1.489778,2.26165 -4.530725,2.88748 -6.792383,1.3977 -2.261656,-1.48943 -2.887837,-4.53072 -1.398058,-6.79238 1.489781,-2.26201 4.530725,-2.88784 6.792738,-1.39806"
       style="fill:#ffffff;fill-opacity:1;fill-rule:nonzero;stroke:none;stroke-width:0.35277775"
       id="path291"
       inkscape:connector-curvature="0" />
    <path
       d="m 70.563599,73.109105 c -2.759075,0 -2.763663,-4.28802 0,-4.28802 2.75872,0 2.76366,4.28802 0,4.28802"
       style="fill:#033454;fill-opacity:1;fill-rule:nonzero;stroke:none;stroke-width:0.35277775"
       id="path295"
       inkscape:connector-curvature="0" />
    <path
       d="m 79.684138,56.061047 c 2.261658,1.489778 2.887837,4.530728 1.397704,6.792388 -1.489779,2.26201 -4.530725,2.88783 -6.792384,1.39805 -2.261655,-1.48942 -2.887837,-4.53072 -1.398058,-6.79238 1.489781,-2.262011 4.53108,-2.887839 6.792738,-1.398058"
       style="fill:#ffffff;fill-opacity:1;fill-rule:nonzero;stroke:none;stroke-width:0.35277775"
       id="path299"
       inkscape:connector-curvature="0" />
    <path
       d="m 76.927709,63.446665 c -2.759075,0 -2.763663,-4.28802 0,-4.28802 2.75872,0 2.76366,4.28802 0,4.28802"
       style="fill:#033454;fill-opacity:1;fill-rule:nonzero;stroke:none;stroke-width:0.35277775"
       id="path303"
       inkscape:connector-curvature="0" />
    <path
       d="m 98.173292,48.503912 c -0.01834,0.01799 -0.03422,0.03316 -0.04798,0.04657 7.15e-4,-0.0011 0.0025,-0.0028 0.0025,-0.0028 l -0.0025,0.0046 c -0.0011,0.0028 -0.006,0.01482 -0.0074,0.02575 -0.0032,0.01764 -0.0032,0.04022 -3.44e-4,0.06103 0.0035,0.02505 0.01129,0.04586 0.01446,0.05327 0.0032,0.006 0.0032,0.0053 7.14e-4,0.0018 -0.0035,-0.0049 -0.01658,-0.02117 -0.03316,-0.03316 -0.0092,-0.0064 -0.01729,-0.01199 -0.02646,-0.01658 l 0.13335,0.06244 c 0,0 0.0049,0.0039 0.0035,0.0074 -3.44e-4,0.0042 -0.02681,0.0095 -0.02681,0.02187 -7.15e-4,0.0085 0.03175,0.01482 0.02293,0.02611 -0.02505,0.03457 0.03775,0.06526 0,0.12065 -3.44e-4,0.04057 0.0092,0.08714 0.02187,0.129469 l 0.02293,0.0635 c 0.0056,0.01729 -0.006,0.03845 0.0028,0.05503 l 0.01552,0.02963 c 0.02046,0.03598 0.06385,0.06209 0.07691,0.09666 0.01482,0.04198 0.03775,0.07655 0.05115,0.115711 0.02258,0.03775 0.05362,0.06526 0.06421,0.106186 0.0011,0.0039 0.0049,0.0049 0.0085,0.006 0.0056,7.15e-4 0.01129,0.0018 0.01552,0.0039 l 0.0053,7.15e-4 c 0.01235,0.0039 0.01658,0.01587 0.0254,0.02222 0.01764,0.01482 0.03598,0.02681 0.05468,0.03704 0.0063,0.0035 0.0099,0.01023 0.01376,0.01658 0.01023,0.0039 0.01764,0.0018 0.02364,0.0071 0.0088,0.0056 0.02222,0.0049 0.0321,0.01058 0.0095,0.0028 0.01235,0.02399 0.02223,0.03175 0.0071,-0.0021 0.01376,-0.0032 0.0194,-0.0025 0.0071,-0.0053 0.01411,-0.01305 0.01834,-0.0063 0.02469,0.03493 0.0568,-0.0194 0.08185,0.03069 0.02293,0.0088 0.04763,0.01129 0.06597,0.0049 0.01093,-0.0014 0.01693,-0.0085 0.02575,-0.01058 0.0071,-0.0021 0.01905,0.0085 0.01905,0.0085 l 0.0014,-0.0063 c 0.0032,-0.0088 -0.01764,-0.03281 -0.01482,-0.0314 0.0042,-7.15e-4 0.0042,-0.0035 0.01058,-0.0056 0.0032,-0.0046 -0.0092,-0.0056 0.0074,-0.01341 0.0039,-0.0025 -0.0095,0 -0.01552,0.0018 -0.0071,0.0018 -0.0025,-7.15e-4 -0.0039,-0.0011 -0.0042,-0.0028 -0.0042,0.006 -0.0127,-0.0014 -0.0088,-0.0025 0.01199,-0.06809 0.006,-0.03175 -0.0011,0.01905 -0.0056,0.02681 -0.0056,0.01693 -0.0011,-0.0035 -7.14e-4,0.0011 -0.0042,-0.01729 -0.0042,-0.02046 -0.01376,-0.05821 -0.0254,-0.08572 -0.02117,-0.05433 -0.06033,-0.132997 -0.0882,-0.221192 -0.03175,-0.09984 -0.03669,-0.174978 -0.02822,-0.267053 0.0056,-0.08749 0.05503,-0.128058 0.106892,-0.141816 0.02646,-0.0063 0.05433,-0.006 0.08325,-0.01129 0.05045,-0.0081 0.09843,0.0014 0.151342,0.0099 0.05327,0.0127 0.09454,0.04974 0.139347,0.06562 0.143934,0.04939 0.214842,0.157338 0.293159,0.270933 0.03281,0.0388 0.07549,0.07408 0.09313,0.123119 0.02364,0.05644 0.03351,0.111478 0.03175,0.17145 0,0.0056 -3.44e-4,0.01199 0.0018,0.01764 0.0025,0.0056 0.0085,0.01058 0.01411,0.01588 0.05362,0.05115 0.03704,0.138289 0.03422,0.199672 -0.0039,0.07726 -0.02681,0.151695 -0.06209,0.220487 -0.07373,0.143933 -0.185561,0.274813 -0.335139,0.345369 -0.03175,0.01411 -0.05962,0.03246 -0.0822,0.04833 -0.06244,0.03845 -0.130175,0.06315 -0.198261,0.07832 -0.0314,0.0056 -0.06773,0.02046 -0.100542,0.01446 -0.0314,-0.0074 -0.05574,-0.02505 -0.08608,-0.0194 -0.04727,0.0067 -0.09419,0.01799 -0.141464,0.01199 -0.187325,-0.01834 -0.354189,-0.09772 -0.526697,-0.19438 -0.02505,-0.01517 -0.0508,-0.03034 -0.06914,-0.05362 -0.01447,-0.02011 -0.02364,-0.04445 -0.04022,-0.06138 -0.01976,-0.01976 -0.04798,-0.02963 -0.07338,-0.0441 -0.02963,-0.01693 -0.05045,-0.04127 -0.07232,-0.06562 l -0.06315,-0.07902 c -0.0081,-0.01129 -0.01199,-0.02258 -0.01411,-0.03422 -0.02222,-0.02152 -0.03492,-0.05009 -0.05009,-0.07091 -0.03104,-0.04092 -0.05821,-0.08396 -0.07726,-0.129469 -0.04128,-0.0956 -0.08819,-0.18415 -0.106186,-0.279753 -0.0035,-0.01905 -0.01411,-0.03563 -0.02364,-0.05186 -0.02505,-0.04198 -0.04233,-0.08643 -0.05574,-0.130881 -0.0063,-0.02152 -0.02222,-0.04269 -0.01834,-0.06773 0.0039,-0.02328 0.01764,-0.04586 0.0078,-0.06809 -0.01517,-0.03422 -0.03457,-0.06914 -0.04198,-0.110419 -0.02787,-0.160867 -0.03105,-0.368653 0.07267,-0.612422 0.02117,-0.04692 0.04763,-0.0889 0.08361,-0.119945 0.02963,-0.02575 0.06421,-0.04163 0.09243,-0.0635 0.03422,-0.0254 0.06033,-0.06068 0.09455,-0.08855 0.03916,-0.03281 0.08749,-0.05397 0.138288,-0.0702 0.05433,-0.01693 0.113242,-0.02822 0.178153,-0.03034 0.06279,-0.0014 0.104422,0.02046 0.162278,0.04798 0.0448,0.02117 0.117828,0.03104 0.147461,0.08008 0.01905,0.03245 0.01482,0.0822 0.0074,0.117475 -0.01517,0.08043 -0.06879,0.141464 -0.130527,0.197203 -0.04022,0.03281 -0.07338,0.05997 -0.111478,0.09102"
       style="fill:#033454;fill-opacity:1;fill-rule:nonzero;stroke:none;stroke-width:0.35277775"
       id="path307"
       inkscape:connector-curvature="0" />
    <path
       d="m 94.011608,51.79621 c -0.01834,0.01799 -0.03422,0.03316 -0.04798,0.04657 7.14e-4,-0.0011 0.0025,-0.0028 0.0025,-0.0028 l -0.0025,0.0046 c -0.0011,0.0025 -0.006,0.01447 -0.0074,0.02575 -0.0032,0.01764 -0.0032,0.04022 -3.44e-4,0.06103 0.0035,0.02505 0.01129,0.04586 0.01482,0.05327 0.0028,0.006 0.0028,0.0053 3.44e-4,0.0018 -0.0035,-0.0049 -0.01658,-0.02117 -0.03316,-0.03316 -0.0092,-0.0067 -0.01729,-0.01199 -0.02646,-0.01658 l 0.13335,0.06244 c 0,0 0.0049,0.0039 0.0035,0.0071 -3.44e-4,0.0046 -0.02681,0.0099 -0.02681,0.02187 -7.15e-4,0.0088 0.03175,0.01517 0.02293,0.02646 -0.02505,0.03457 0.03775,0.06526 0,0.12065 -3.44e-4,0.04022 0.0092,0.08714 0.02187,0.129117 l 0.02293,0.06385 c 0.0056,0.01729 -0.006,0.03845 0.0028,0.05468 l 0.01587,0.02999 c 0.02011,0.03598 0.0635,0.06209 0.07655,0.09631 0.01482,0.04233 0.03775,0.07691 0.05115,0.116064 0.02258,0.03739 0.05362,0.06526 0.06421,0.106186 0.0011,0.0039 0.0049,0.0049 0.0085,0.006 0.0056,7.14e-4 0.01129,0.0018 0.01552,0.0039 l 0.0053,7.15e-4 c 0.0127,0.0039 0.01658,0.01587 0.0254,0.02223 0.01764,0.01482 0.03634,0.02681 0.05468,0.03704 0.0064,0.0035 0.0099,0.01023 0.01376,0.01658 0.01023,0.0035 0.01764,0.0018 0.02363,0.0071 0.0088,0.0056 0.02223,0.0049 0.0321,0.01023 0.0095,0.0032 0.01235,0.02434 0.02258,0.0321 0.0067,-0.0021 0.01341,-0.0035 0.01905,-0.0025 0.0071,-0.0053 0.01411,-0.01305 0.0187,-0.0063 0.02434,0.03492 0.05644,-0.0194 0.08149,0.03034 0.02293,0.0092 0.04763,0.01129 0.06597,0.0053 0.01093,-0.0014 0.01693,-0.0085 0.02575,-0.01058 0.0071,-0.0021 0.01905,0.0085 0.01905,0.0085 l 0.0014,-0.0064 c 0.0032,-0.0088 -0.01764,-0.03281 -0.01482,-0.0314 0.0042,-7.15e-4 0.0042,-0.0035 0.01058,-0.0056 0.0032,-0.0046 -0.0092,-0.0056 0.0074,-0.01341 0.0039,-0.0025 -0.0095,0 -0.01552,0.0018 -0.0071,0.0014 -0.0025,-7.14e-4 -0.0039,-0.0011 -0.0042,-0.0028 -0.0039,0.006 -0.0127,-0.0018 -0.0088,-0.0021 0.01199,-0.06773 0.006,-0.0314 -0.0011,0.01905 -0.0056,0.02681 -0.0056,0.01693 -0.0011,-0.0035 -7.14e-4,0.0011 -0.0042,-0.01729 -0.0039,-0.02046 -0.01376,-0.05821 -0.0254,-0.08573 -0.02117,-0.05433 -0.06032,-0.132997 -0.08819,-0.221544 -0.03175,-0.09948 -0.03634,-0.174625 -0.02822,-0.2667 0.0056,-0.08749 0.05503,-0.128058 0.106892,-0.141817 0.02646,-0.0064 0.05433,-0.006 0.08326,-0.01129 0.05045,-0.0085 0.09842,0.0011 0.151341,0.0099 0.05327,0.0127 0.09455,0.04974 0.139347,0.06562 0.143934,0.04939 0.214842,0.156986 0.293159,0.270933 0.03281,0.03881 0.07549,0.07373 0.09313,0.12312 0.02363,0.05644 0.03351,0.111477 0.03175,0.17145 0,0.0056 -3.44e-4,0.01164 0.0018,0.01764 0.0025,0.0056 0.0085,0.01058 0.01411,0.01587 0.05362,0.05115 0.03704,0.138288 0.03422,0.199672 -0.0039,0.07726 -0.02681,0.151694 -0.06209,0.220486 -0.07373,0.14358 -0.185561,0.274814 -0.335139,0.345369 -0.03175,0.01411 -0.05927,0.03246 -0.0822,0.04798 -0.06209,0.03881 -0.130175,0.0635 -0.197909,0.07867 -0.03175,0.0056 -0.06809,0.02046 -0.100894,0.01446 -0.0314,-0.0074 -0.05574,-0.02505 -0.08608,-0.0194 -0.04727,0.0067 -0.09419,0.01799 -0.141464,0.01199 -0.187325,-0.01834 -0.354189,-0.09772 -0.526344,-0.194734 -0.0254,-0.01482 -0.05115,-0.02999 -0.0695,-0.05327 -0.01447,-0.02011 -0.02364,-0.04445 -0.04022,-0.06138 -0.01976,-0.01976 -0.04798,-0.02963 -0.07338,-0.0441 -0.02963,-0.01693 -0.05045,-0.04163 -0.07232,-0.06562 l -0.06315,-0.07902 c -0.0081,-0.01129 -0.01199,-0.02258 -0.01411,-0.03422 -0.02223,-0.02152 -0.03493,-0.05009 -0.0501,-0.07091 -0.03069,-0.04127 -0.05821,-0.08396 -0.07726,-0.12947 -0.04128,-0.0956 -0.08819,-0.18415 -0.106186,-0.279752 -0.0035,-0.01905 -0.01411,-0.03563 -0.02364,-0.05186 -0.02505,-0.04198 -0.04233,-0.08643 -0.05574,-0.131233 -0.0063,-0.02117 -0.02187,-0.04233 -0.01799,-0.06738 0.0035,-0.02364 0.01729,-0.04586 0.0074,-0.06809 -0.01517,-0.03457 -0.03457,-0.06914 -0.04198,-0.110419 -0.02787,-0.16122 -0.03104,-0.368653 0.07267,-0.612422 0.02117,-0.04692 0.04763,-0.0889 0.08361,-0.119945 0.02963,-0.02575 0.06421,-0.04163 0.09243,-0.0635 0.03422,-0.0254 0.06032,-0.06103 0.09455,-0.0889 0.03916,-0.03246 0.08749,-0.05362 0.138288,-0.06985 0.05433,-0.01693 0.113242,-0.02822 0.178153,-0.03034 0.06279,-0.0014 0.104422,0.02046 0.162278,0.04798 0.0448,0.02117 0.117828,0.03104 0.147461,0.08008 0.01905,0.03245 0.01482,0.0822 0.0078,0.117122 -0.01552,0.08079 -0.06879,0.141464 -0.13088,0.197555 -0.04022,0.03281 -0.07338,0.05997 -0.111478,0.09102"
       style="fill:#033454;fill-opacity:1;fill-rule:nonzero;stroke:none;stroke-width:0.35277775"
       id="path311"
       inkscape:connector-curvature="0" />
    <path
       d="m 59.462457,80.736545 c 0.195085,-0.20073 0.428625,-0.3436 0.689327,-0.38347 0.506942,-0.078 0.973667,0.26811 1.356783,0.60925 0.440973,0.393 0.863248,0.80716 1.265061,1.24072 0.475898,0.514 0.940858,1.09432 1.040696,1.78788 0.304093,2.10749 -2.390071,2.04187 -3.467807,1.00083 -0.675568,-0.65299 -1.365956,-1.59738 -1.489075,-2.55447 -0.06809,-0.53093 0.174625,-1.2573 0.605015,-1.70074"
       style="fill:#033454;fill-opacity:1;fill-rule:nonzero;stroke:none;stroke-width:0.35277775"
       id="path315"
       inkscape:connector-curvature="0" />
    <path
       d="m 64.679371,87.108415 c 0.379235,-0.37994 0.962729,-0.5528 1.467554,-0.33337 0.319265,0.13899 0.57785,0.38841 0.809625,0.6484 0.428625,0.48084 0.809273,1.06927 0.782463,1.71274 -0.06915,1.65453 -2.078215,1.77094 -2.932642,0.66393 -0.595842,-0.77153 -0.891471,-1.92582 -0.127,-2.6917"
       style="fill:#033454;fill-opacity:1;fill-rule:nonzero;stroke:none;stroke-width:0.35277775"
       id="path319"
       inkscape:connector-curvature="0" />
    <path
       d="m 57.790571,89.328445 c -0.41839,-1.08761 0.22719,-3.46604 1.816806,-2.82857 0.426509,0.1711 0.712613,0.56833 0.974373,0.94615 0.344311,0.49601 0.688269,0.99237 1.032227,1.48872 0.255765,0.36901 0.516467,0.74789 0.631122,1.18216 0.296685,1.12642 -0.785284,2.13713 -1.896534,1.91453 -1.177221,-0.23601 -2.155824,-1.65665 -2.557994,-2.70299"
       style="fill:#033454;fill-opacity:1;fill-rule:nonzero;stroke:none;stroke-width:0.35277775"
       id="path323"
       inkscape:connector-curvature="0" />
    <path
       d="m 63.246917,94.035145 c 0.02151,-0.66252 0.520345,-1.21215 1.172279,-1.31375 0.76835,-0.11959 1.362429,0.36301 1.799166,0.94933 0.239184,0.32138 0.44803,0.68121 0.497772,1.07879 0.227541,1.83586 -2.263775,1.70321 -3.027188,0.56762 -0.261761,-0.38911 -0.4572,-0.80574 -0.442029,-1.28199"
       style="fill:#033454;fill-opacity:1;fill-rule:nonzero;stroke:none;stroke-width:0.35277775"
       id="path327"
       inkscape:connector-curvature="0" />
    <path
       d="m 101.01774,69.419755 c 0.56797,0.90205 1.58926,2.29094 1.41958,3.43217 -0.1898,1.27812 -1.55434,1.44992 -2.545649,0.99272 -0.927452,-0.42757 -1.586089,-0.71191 -2.397125,-1.85526 z"
       style="fill:#ffffff;fill-opacity:1;fill-rule:nonzero;stroke:none;stroke-width:0.35277775"
       id="path367"
       inkscape:connector-curvature="0" />
    <path
       d="m 94.348544,73.843445 c 0.226484,1.04175 0.712964,2.69558 0.164042,3.71087 -0.614186,1.1363 -1.955447,0.83291 -2.731558,0.0653 -0.725664,-0.71861 -1.248128,-1.21073 -1.620661,-2.56223 z"
       style="fill:#ffffff;fill-opacity:1;fill-rule:nonzero;stroke:none;stroke-width:0.35277775"
       id="path375"
       inkscape:connector-curvature="0" />
    <path
       d="m 81.639938,75.044755 c 0.152752,-0.0889 0.298095,-0.10865 0.655108,-0.0695 0.150987,0.0155 0.310796,0.0575 0.468487,0.09 l 0.680509,0.11148 c 0.141464,0.0229 0.280813,0.036 0.421216,0.0501 0.141817,0.004 0.28434,0.0102 0.430742,0.0289 0.18415,0.0236 0.37183,0.0434 0.55739,0.0589 0.297743,0.0251 0.5969,0.009 0.894291,0.0145 l 0.446969,-2.6e-4 0.447323,-0.0222 c 0.258939,-0.0138 0.522111,-0.0201 0.778228,-0.0459 0.257528,-0.0268 0.518936,-0.0296 0.781755,-0.0561 0.194734,-0.0155 0.37465,-0.0773 0.569737,-0.1016 0.281163,-0.0335 0.563386,-0.0847 0.841022,-0.13794 0.275166,-0.0663 0.5461,-0.12876 0.812094,-0.16298 0.456142,-0.0836 0.89782,-0.23107 1.3462,-0.35031 0.2286,-0.0688 0.451556,-0.15487 0.677686,-0.23036 0.183445,-0.0635 0.3556,-0.1016 0.54222,-0.17075 l 0.338666,-0.14145 c 0.415925,-0.17004 0.83432,-0.37183 1.233311,-0.56268 0.479425,-0.20567 0.938742,-0.45579 1.404762,-0.69109 0.253294,-0.12418 0.487891,-0.28116 0.732013,-0.41945 0.242006,-0.14288 0.487892,-0.27764 0.724959,-0.42828 0.04339,-0.0261 0.08008,-0.0533 0.11818,-0.0797 l 0.157692,-0.11324 c 0.01658,-0.012 0.0321,-0.0236 0.04939,-0.0363 0.136525,-0.0981 0.293158,-0.19121 0.432858,-0.28751 l 0.868892,-0.63606 0.282928,-0.21414 0.440972,-0.3563 c 0.208492,-0.15805 0.404632,-0.33691 0.601842,-0.50554 0.17145,-0.14605 0.35383,-0.28081 0.53128,-0.42474 0.0854,-0.0822 0.17357,-0.16722 0.25929,-0.25012 0.0758,-0.0801 0.15099,-0.16016 0.23777,-0.23283 0.44486,-0.35948 0.81139,-0.82303 1.22979,-1.16417 0.3242,-0.33479 0.65722,-0.66322 0.96484,-1.01529 l 0.4759,-0.54081 c 0.13123,-0.14464 0.25435,-0.27164 0.38171,-0.42616 l 0.23248,-0.28681 c 0.28963,-0.34713 0.54715,-0.74012 0.82726,-1.08655 0.3235,-0.41346 0.635,-0.8382 0.95038,-1.25942 0.32668,-0.46496 0.65194,-0.92745 0.9772,-1.39065 0.0847,-0.11712 0.14005,-0.22295 0.21237,-0.34008 0.0921,-0.14287 0.19121,-0.29704 0.28399,-0.44097 0.19438,-0.30586 0.39228,-0.60925 0.5789,-0.92004 0.36266,-0.58597 0.77894,-1.14406 1.09926,-1.75225 0.17851,-0.34749 0.35313,-0.66216 0.5655,-1.00789 0.0759,-0.127 0.139,-0.248 0.22225,-0.35595 0.0921,-0.11959 0.19474,-0.21802 0.2854,-0.31221 0.17604,-0.18238 0.31468,-0.231068 0.38664,-0.15557 0.0744,0.0787 0.0579,0.24447 0.042,0.43921 -0.0141,0.17674 -0.11959,0.42791 -0.24835,0.66428 -0.0667,0.12029 -0.13547,0.24377 -0.20532,0.37041 l -0.36936,0.65511 c -0.11888,0.21167 -0.25647,0.39229 -0.37394,0.60607 -0.34114,0.62019 -0.7426,1.20368 -1.12889,1.80587 -0.13688,0.22296 -0.26,0.44415 -0.40287,0.6604 -0.17004,0.25471 -0.33197,0.47872 -0.51506,0.72284 -0.0183,0.0243 -0.0367,0.049 -0.0526,0.0748 -0.0169,0.0279 -0.0289,0.0557 -0.0423,0.0829 -0.12241,0.26494 -0.38241,0.58879 -0.55844,0.84597 -0.21414,0.31573 -0.44239,0.62194 -0.67381,0.92639 -0.48895,0.64382 -0.98107,1.28129 -1.51236,1.88771 -0.10548,0.12065 -0.2039,0.2473 -0.3048,0.37148 -0.26317,0.31115 -0.52987,0.62159 -0.80398,0.92534 -0.13335,0.14181 -0.28116,0.3115 -0.42016,0.44379 -0.1337,0.12735 -0.248,0.22084 -0.37888,0.36477 -0.20884,0.2159 -0.40675,0.42757 -0.62195,0.63994 -0.8516,0.81845 -1.73002,1.58538 -2.663822,2.31916 -0.152047,0.12453 -0.304447,0.24977 -0.4699,0.35595 -0.134055,0.09 -0.270933,0.17286 -0.403225,0.26635 -0.160161,0.11042 -0.304447,0.23919 -0.462139,0.35137 -0.18415,0.13017 -0.375002,0.25506 -0.565502,0.37923 -0.201789,0.13265 -0.403225,0.266 -0.614186,0.38418 -0.08573,0.0508 -0.159103,0.0896 -0.230717,0.12594 -0.188736,0.11148 -0.388056,0.22931 -0.555625,0.32844 -0.337961,0.18344 -0.678745,0.36265 -1.021292,0.53834 -0.370064,0.17109 -0.739069,0.34149 -1.107722,0.51152 -0.373944,0.15769 -0.752828,0.30304 -1.131358,0.44838 l -0.454731,0.16475 c -0.385233,0.14146 -0.771525,0.28681 -1.170869,0.39088 -0.188384,0.0536 -0.403931,0.12418 -0.592667,0.16722 -0.179564,0.0452 -0.3302,0.0515 -0.519642,0.10054 -0.294216,0.0713 -0.57538,0.15134 -0.87383,0.21061 -1.170517,0.22013 -2.342092,0.31609 -3.537655,0.36018 -0.197908,-10e-4 -0.396875,-0.003 -0.594079,-0.0141 -0.162277,-0.009 -0.321734,-0.0251 -0.484717,-0.0303 -0.195792,-0.009 -0.389112,-0.018 -0.583845,-0.0268 -0.226838,-0.0116 -0.45579,-0.0317 -0.683684,-0.0522 l -0.721783,-0.1143 c -0.230013,-0.0402 -0.375357,-0.0699 -0.584907,-0.133 -0.167923,-0.0504 -0.389466,-0.0829 -0.542573,-0.14499 -0.101245,-0.0409 -0.18062,-0.10371 -0.243768,-0.14993 -0.142875,-0.10442 -0.196144,-0.19826 -0.1905,-0.28222 0.0039,-0.0522 0.07514,-0.0783 0.136173,-0.11395"
       style="fill:#033454;fill-opacity:1;fill-rule:nonzero;stroke:none;stroke-width:0.35277775"
       id="path379"
       inkscape:connector-curvature="0" />
  </g>
</svg>
