<?xml version="1.0" encoding="UTF-8" standalone="no"?>
<!-- Created with Inkscape (http://www.inkscape.org/) -->

<svg
   xmlns:dc="http://purl.org/dc/elements/1.1/"
   xmlns:cc="http://creativecommons.org/ns#"
   xmlns:rdf="http://www.w3.org/1999/02/22-rdf-syntax-ns#"
   xmlns:svg="http://www.w3.org/2000/svg"
   xmlns="http://www.w3.org/2000/svg"
   xmlns:sodipodi="http://sodipodi.sourceforge.net/DTD/sodipodi-0.dtd"
   xmlns:inkscape="http://www.inkscape.org/namespaces/inkscape"
   width="61.31601mm"
   height="48.852562mm"
   viewBox="0 0 61.31601 48.852562"
   version="1.1"
   id="svg1911"
   inkscape:version="0.92.4 (33fec40, 2019-01-16)"
   sodipodi:docname="logo11.svg">
  <defs
     id="defs1905" />
  <sodipodi:namedview
     id="base"
     pagecolor="#ffffff"
     bordercolor="#666666"
     borderopacity="1.0"
     inkscape:pageopacity="0.0"
     inkscape:pageshadow="2"
     inkscape:zoom="1.979899"
     inkscape:cx="140.26782"
     inkscape:cy="120.75471"
     inkscape:document-units="mm"
     inkscape:current-layer="layer1"
     showgrid="false"
     fit-margin-top="0"
     fit-margin-left="0"
     fit-margin-right="0"
     fit-margin-bottom="0"
     inkscape:window-width="1315"
     inkscape:window-height="713"
     inkscape:window-x="51"
     inkscape:window-y="27"
     inkscape:window-maximized="1" />
  <metadata
     id="metadata1908">
    <rdf:RDF>
      <cc:Work
         rdf:about="">
        <dc:format>image/svg+xml</dc:format>
        <dc:type
           rdf:resource="http://purl.org/dc/dcmitype/StillImage" />
        <dc:title></dc:title>
      </cc:Work>
    </rdf:RDF>
  </metadata>
  <g
     inkscape:label="Layer 1"
     inkscape:groupmode="layer"
     id="layer1"
     transform="translate(-44.778903,-42.86715)">
    <path
       d="m 58.940543,58.606377 c -1.088404,-1.461904 -1.935958,-3.213078 -2.771159,-4.868368 -0.535335,-1.060904 -1.62629,-2.500725 -1.245875,-3.950404 0.307716,-1.171138 1.396278,-1.678409 2.373191,-1.625774 1.762147,0.09517 3.551079,1.018056 5.059827,1.732028 1.784922,0.84393 3.451173,1.869465 5.016358,3.053405 0.292631,0.221011 0.323951,0.567335 0.208222,0.883148 0.05473,0.727247 -0.375565,1.453783 -1.053711,2.118631 -1.237995,1.213064 -2.974453,2.755845 -4.498522,3.469862 -1.346906,0.631518 -2.339529,0.192808 -3.088331,-0.812528"
       style="fill:#033454;fill-opacity:1;fill-rule:nonzero;stroke:none;stroke-width:0.35277775"
       id="path203"
       inkscape:connector-curvature="0" />
    <path
       d="m 55.090225,65.199767 c -1.377698,-1.171494 -2.591342,-2.643627 -3.771298,-4.029469 -0.756302,-0.888305 -2.131713,-2.039639 -2.099893,-3.419907 0.02563,-1.11498 0.95142,-1.740882 1.898879,-1.839042 1.709155,-0.177303 3.633871,0.397608 5.242746,0.823096 1.902826,0.503159 3.734003,1.189791 5.504421,2.036311 0.330778,0.158298 0.440367,0.469645 0.402173,0.77525 0.219261,0.655719 -0.02579,1.38344 -0.522899,2.09196 -0.90666,1.292556 -2.215113,2.960881 -3.510545,3.841263 -1.144402,0.77817 -2.195913,0.526199 -3.143597,-0.279488"
       style="fill:#033454;fill-opacity:1;fill-rule:nonzero;stroke:none;stroke-width:0.35277775"
       id="path207"
       inkscape:connector-curvature="0" />
    <path
       d="m 52.47208,71.856286 c -1.638922,-0.764545 -3.199547,-1.862019 -4.704754,-2.885969 -0.96429,-0.655963 -2.595496,-1.401144 -2.930967,-2.740788 -0.270832,-1.081807 0.455639,-1.931054 1.343341,-2.276897 1.601303,-0.623391 3.60947,-0.57967 5.273688,-0.595617 1.967819,-0.01883 3.915174,0.157785 5.847059,0.504849 0.36081,0.06449 0.54889,0.335879 0.593174,0.640726 0.385277,0.574427 0.342126,1.340423 0.05074,2.155479 -0.531748,1.486855 -1.351749,3.442522 -2.366801,4.634468 -0.897828,1.053507 -1.978419,1.089734 -3.105483,0.563747"
       style="fill:#033454;fill-opacity:1;fill-rule:nonzero;stroke:none;stroke-width:0.35277775"
       id="path211"
       inkscape:connector-curvature="0" />
    <path
       d="m 55.598712,77.6798 c -1.803341,-0.138241 -3.650138,-0.616145 -5.419559,-1.044561 -1.133814,-0.274265 -2.922915,-0.39741 -3.708486,-1.533084 -0.634349,-0.917169 -0.253197,-1.967951 0.45571,-2.604013 1.279104,-1.147555 3.174069,-1.813687 4.725878,-2.414395 1.835523,-0.711017 3.720365,-1.231293 5.65079,-1.58685 0.360311,-0.06628 0.631984,0.121025 0.780791,0.391113 0.562573,0.401748 0.791425,1.134218 0.806026,1.999588 0.02619,1.578738 -0.05275,3.697905 -0.583258,5.171051 -0.469202,1.30232 -1.467773,1.716305 -2.707892,1.621151"
       style="fill:#033454;fill-opacity:1;fill-rule:nonzero;stroke:none;stroke-width:0.35277775"
       id="path215"
       inkscape:connector-curvature="0" />
    <path
       d="m 57.85472,82.17357 c -1.783486,0.29797 -3.691247,0.276513 -5.511568,0.285064 -1.16651,0.0053 -2.933178,0.314487 -3.968108,-0.599654 -0.835794,-0.738407 -0.717533,-1.849777 -0.181811,-2.637283 0.966912,-1.42053 2.646889,-2.521364 4.009625,-3.47705 1.611223,-1.129735 3.316501,-2.087 5.105712,-2.894991 0.333498,-0.150706 0.642415,-0.03364 0.85169,0.192645 0.642401,0.25508 1.040554,0.911601 1.261958,1.748335 0.403739,1.526175 0.83511,3.602448 0.673073,5.159774 -0.143298,1.376956 -1.013325,2.018177 -2.240575,2.223167"
       style="fill:#033454;fill-opacity:1;fill-rule:nonzero;stroke:none;stroke-width:0.35277775"
       id="path219"
       inkscape:connector-curvature="0" />
    <path
       d="m 59.536508,88.666316 c -1.783835,0.29793 -3.691599,0.276474 -5.511608,0.285413 -1.16647,0.005 -2.933139,0.314138 -3.968067,-0.600013 -0.835836,-0.738047 -0.717574,-1.849418 -0.181852,-2.636924 0.966921,-1.42053 2.64693,-2.521711 4.009676,-3.477406 1.611212,-1.129727 3.316488,-2.086993 5.105311,-2.894676 0.333889,-0.151013 0.642807,-0.03395 0.852087,0.192288 0.642361,0.255428 1.040203,0.911561 1.261957,1.748336 0.403699,1.526522 0.83511,3.602447 0.673034,5.160122 -0.143256,1.376607 -1.013284,2.017828 -2.240534,2.22282"
       style="fill:#033454;fill-opacity:1;fill-rule:nonzero;stroke:none;stroke-width:0.35277775"
       id="path223"
       inkscape:connector-curvature="0" />
    <path
       d="m 104.51652,70.786821 c -2.88396,5.80061 -9.354273,10.354564 -15.709603,13.762043 -11.629896,6.234962 -27.22895,13.101505 -34.967312,-1.597108 -7.7381,-14.698288 0.750982,-22.007384 15.214531,-32.004982 15.450847,-10.680211 22.83677,-11.759313 33.117034,2.766534 0.95959,1.355988 1.72478,2.673445 2.31422,3.952273 0,0 3.6006,6.419799 0.0311,13.12124"
       style="fill:#61c8b6;fill-opacity:1;fill-rule:nonzero;stroke:none;stroke-width:0.3086417"
       id="path287"
       inkscape:connector-curvature="0" />
    <path
       d="m 73.261162,60.07914 c 2.075483,1.739802 2.347723,4.832523 0.607878,6.908355 -1.739799,2.075476 -4.832517,2.347719 -6.908,0.607917 -2.075521,-1.739455 -2.348074,-4.832553 -0.608273,-6.908038 1.739844,-2.075832 4.83256,-2.348077 6.908395,-0.608234"
       style="fill:#ffffff;fill-opacity:1;fill-rule:nonzero;stroke:none;stroke-width:0.35277775"
       id="path291"
       inkscape:connector-curvature="0" />
    <path
       d="m 69.674302,67.09905 c -2.740797,-0.31705 -2.252611,-4.577193 0.492745,-4.259615 2.740445,0.317009 2.252608,4.577191 -0.492745,4.259615"
       style="fill:#033454;fill-opacity:1;fill-rule:nonzero;stroke:none;stroke-width:0.35277775"
       id="path295"
       inkscape:connector-curvature="0" />
    <path
       d="m 80.693446,51.21198 c 2.075483,1.7398 2.348073,4.832561 0.60792,6.908005 -1.739841,2.075834 -4.832557,2.348067 -6.908041,0.608265 -2.075521,-1.739444 -2.348075,-4.832554 -0.608273,-6.908038 1.739844,-2.075834 4.832912,-2.348035 6.908394,-0.608232"
       style="fill:#ffffff;fill-opacity:1;fill-rule:nonzero;stroke:none;stroke-width:0.35277775"
       id="path299"
       inkscape:connector-curvature="0" />
    <path
       d="m 77.106582,58.231927 c -2.740797,-0.31705 -2.252612,-4.577192 0.492745,-4.259615 2.740444,0.31701 2.252608,4.577193 -0.492745,4.259615"
       style="fill:#033454;fill-opacity:1;fill-rule:nonzero;stroke:none;stroke-width:0.35277775"
       id="path303"
       inkscape:connector-curvature="0" />
    <path
       d="m 94.364478,52.305539 c -0.02029,0.01572 -0.03779,0.029 -0.053,0.04075 6.19e-4,-7.98e-4 0.003,-0.0027 0.003,-0.0027 l -0.0029,0.0042 c -0.0015,0.0027 -0.0077,0.01404 -0.01028,0.0247 -0.0052,0.01719 -0.0078,0.03958 -0.0074,0.06062 6.11e-4,0.02528 0.006,0.04683 0.0082,0.05459 0.0022,0.0066 0.0026,0.0055 5.06e-4,0.0019 -0.0026,-0.0055 -0.014,-0.02297 -0.02897,-0.0369 -0.0084,-0.0074 -0.01607,-0.01363 -0.02449,-0.01941 l 0.125314,0.07733 c 0,0 0.0044,0.0045 0.0023,0.0081 -4.74e-4,0.0038 -0.02773,0.0064 -0.02917,0.01864 -0.0017,0.0083 0.03016,0.01806 0.01962,0.02873 -0.02884,0.03145 0.02998,0.06919 -0.01389,0.119874 -0.005,0.04028 -8.97e-4,0.08764 0.0068,0.131128 l 0.01546,0.06574 c 0.0035,0.01791 -0.01038,0.0375 -0.0035,0.05498 l 0.012,0.03123 c 0.01618,0.0381 0.05618,0.06913 0.0653,0.104855 0.0099,0.04341 0.02873,0.08036 0.03754,0.120795 0.0181,0.04008 0.04573,0.07102 0.05159,0.112855 8.7e-4,0.0038 0.0043,0.0054 0.0078,0.0069 0.0055,0.0013 0.01121,0.0029 0.01513,0.0055 l 0.0054,0.0012 c 0.01198,0.0051 0.01453,0.01778 0.02282,0.02486 0.01583,0.01675 0.03272,0.03071 0.05021,0.04294 0.0057,0.0044 0.0084,0.01152 0.01189,0.01793 0.0094,0.0054 0.0175,0.0036 0.02237,0.01007 0.0079,0.0067 0.02149,0.0074 0.0307,0.01417 0.0092,0.0037 0.0095,0.02524 0.01843,0.03411 0.0072,-0.0012 0.01402,-0.0017 0.01957,-2.61e-4 0.008,-0.0047 0.01549,-0.01132 0.01896,-0.0042 0.02051,0.03753 0.05865,-0.01274 0.0778,0.03987 0.02202,0.01114 0.04601,0.0167 0.06493,0.01248 0.01103,-1.39e-4 0.01784,-0.0065 0.02682,-0.0076 0.0072,-0.0012 0.01763,0.01094 0.01763,0.01094 l 0.0023,-0.0063 c 0.0043,-0.0085 -0.01376,-0.03461 -0.01111,-0.0329 0.0041,-8.7e-5 0.0043,-0.0028 0.01116,-0.0043 0.004,-0.0045 -0.0082,-0.0069 0.0089,-0.01247 0.0038,-0.0018 -0.0095,-0.0011 -0.01563,8e-6 -0.0074,10e-4 -0.0024,-10e-4 -0.004,-0.0013 -0.0038,-0.0032 -0.0046,0.0053 -0.0125,-0.0028 -0.0087,-0.0032 0.01975,-0.06628 0.0096,-0.03084 -0.0033,0.01882 -0.0086,0.02597 -0.0076,0.01617 -7.3e-4,-0.0036 -6.18e-4,7.99e-4 -0.0022,-0.01769 -0.0018,-0.0208 -0.0069,-0.05944 -0.01541,-0.08805 -0.01476,-0.05643 -0.04461,-0.139084 -0.0622,-0.229863 -0.02006,-0.102843 -0.01634,-0.178034 0.0027,-0.268524 0.01563,-0.08628 0.06939,-0.120889 0.122512,-0.128568 0.02701,-0.0032 0.05462,3.24e-4 0.08398,-0.0016 0.05102,-0.0022 0.09765,0.01267 0.149222,0.0272 0.05147,0.01873 0.08819,0.06028 0.130892,0.08119 0.137326,0.06558 0.195322,0.181 0.260101,0.302809 0.0284,0.04205 0.06633,0.08241 0.07835,0.133018 0.01696,0.05882 0.02048,0.114595 0.01183,0.173966 -4.23e-4,0.0053 -0.0021,0.01221 -2.1e-4,0.0177 0.0017,0.006 0.0071,0.0116 0.01248,0.01711 0.04726,0.0571 0.02087,0.141658 0.01105,0.20228 -0.01277,0.07631 -0.04406,0.147605 -0.08702,0.211891 -0.08978,0.134505 -0.215909,0.251669 -0.372601,0.30457 -0.03317,0.01038 -0.06294,0.02539 -0.08722,0.03858 -0.06642,0.03099 -0.136562,0.04777 -0.205941,0.05501 -0.03185,0.002 -0.06961,0.01252 -0.101543,0.0028 -0.03035,-0.01095 -0.05252,-0.03126 -0.08328,-0.02916 -0.0477,0.0012 -0.09562,0.007 -0.141896,-0.0044 -0.183974,-0.03975 -0.340611,-0.137776 -0.500867,-0.25362 -0.0231,-0.01798 -0.0473,-0.03566 -0.06247,-0.06126 -0.01239,-0.02132 -0.01841,-0.04684 -0.0329,-0.06559 -0.01725,-0.02201 -0.04403,-0.03516 -0.06781,-0.05226 -0.02779,-0.01993 -0.04538,-0.04679 -0.06446,-0.07333 l -0.05366,-0.08574 c -0.0065,-0.0124 -0.0093,-0.02385 -0.01011,-0.0356 -0.01936,-0.02417 -0.02893,-0.05377 -0.04158,-0.07622 -0.02616,-0.04419 -0.04815,-0.09012 -0.06189,-0.137471 -0.03,-0.09973 -0.06647,-0.193044 -0.07334,-0.290104 -0.0013,-0.01935 -0.0099,-0.037 -0.01752,-0.05423 -0.02009,-0.04455 -0.03212,-0.09072 -0.04034,-0.136414 -0.0038,-0.02209 -0.01715,-0.04497 -0.01046,-0.06935 0.0065,-0.02266 0.02279,-0.04353 0.01555,-0.06672 -0.01111,-0.03576 -0.02639,-0.07266 -0.02903,-0.114493 -0.0092,-0.162999 0.01151,-0.369773 0.14256,-0.600012 0.02639,-0.04414 0.05752,-0.08283 0.09683,-0.109541 0.0324,-0.02221 0.06855,-0.03396 0.09912,-0.05246 0.03691,-0.0213 0.06689,-0.0533 0.104105,-0.0771 0.04273,-0.02808 0.09312,-0.04356 0.145439,-0.05385 0.05589,-0.01056 0.115747,-0.01504 0.180456,-0.0097 0.06252,0.0058 0.10141,0.0323 0.155656,0.06634 0.0421,0.02616 0.113468,0.04439 0.137285,0.09649 0.01522,0.0344 0.0053,0.08337 -0.0061,0.117529 -0.02428,0.07811 -0.08458,0.132621 -0.152324,0.180899 -0.0437,0.02794 -0.07976,0.05112 -0.121196,0.0776"
       style="fill:#033454;fill-opacity:1;fill-rule:nonzero;stroke:none;stroke-width:0.35277775"
       id="path307"
       inkscape:connector-curvature="0" />
    <path
       d="m 89.852041,55.097798 c -0.02029,0.01572 -0.03779,0.029 -0.053,0.04075 6.17e-4,-7.99e-4 0.003,-0.0027 0.003,-0.0027 l -0.0029,0.0042 c -0.0016,0.0026 -0.0076,0.01369 -0.01028,0.0247 -0.0052,0.01719 -0.0078,0.03958 -0.0073,0.06055 6.1e-4,0.02528 0.006,0.04683 0.0086,0.05465 0.002,0.0064 0.0024,0.0053 2.61e-4,0.0017 -0.0026,-0.0055 -0.014,-0.02297 -0.02897,-0.0369 -0.0084,-0.0077 -0.01607,-0.01363 -0.02449,-0.01941 l 0.125315,0.07733 c 0,0 0.0044,0.0045 0.0029,0.0073 -0.0011,0.0047 -0.02777,0.0068 -0.02917,0.01864 -0.0015,0.0085 0.0296,0.01891 0.01977,0.02889 -0.02884,0.03145 0.02999,0.06918 -0.01389,0.119875 -0.005,0.03991 -8.97e-4,0.08764 0.0069,0.13076 l 0.01547,0.06603 c 0.0035,0.01791 -0.01038,0.0375 -0.0035,0.05461 l 0.01234,0.03159 c 0.01585,0.03805 0.05598,0.06893 0.06495,0.104497 0.0098,0.04377 0.02867,0.08073 0.03748,0.121163 0.01816,0.03971 0.04574,0.07102 0.05159,0.112855 8.7e-4,0.0038 0.0043,0.0054 0.0078,0.0069 0.0055,0.0013 0.01121,0.0029 0.01513,0.0055 l 0.0054,0.0012 c 0.01217,0.0053 0.01453,0.01778 0.02282,0.02486 0.01582,0.01675 0.03291,0.03092 0.05021,0.04294 0.0057,0.0045 0.0084,0.01152 0.01189,0.01793 0.0099,0.0045 0.0175,0.0036 0.02236,0.01006 0.0079,0.0067 0.02149,0.0074 0.03069,0.01387 0.0094,0.0039 0.0095,0.02561 0.01877,0.03446 0.007,-0.0014 0.01374,-0.0019 0.01923,-3.22e-4 0.008,-0.0047 0.01549,-0.01132 0.01931,-0.0041 0.02017,0.03748 0.05831,-0.0128 0.07745,0.03952 0.02148,0.01201 0.04601,0.0167 0.0649,0.01288 0.01103,-1.39e-4 0.01784,-0.0065 0.02682,-0.0076 0.0072,-0.0012 0.01764,0.01094 0.01764,0.01094 l 0.0022,-0.0063 c 0.0043,-0.0085 -0.01376,-0.03462 -0.01111,-0.0329 0.0041,-8.8e-5 0.0043,-0.0028 0.01116,-0.0043 0.004,-0.0045 -0.0082,-0.0069 0.0089,-0.01247 0.0038,-0.0018 -0.0095,-0.0011 -0.01563,8e-6 -0.0075,8.93e-4 -0.0024,-10e-4 -0.004,-0.0013 -0.0038,-0.0032 -0.0045,0.0054 -0.01268,-0.003 -0.0086,-0.0031 0.0197,-0.06591 0.0095,-0.03048 -0.0033,0.01882 -0.0086,0.02597 -0.0076,0.01617 -7.31e-4,-0.0036 -6.18e-4,7.99e-4 -0.0022,-0.01769 -0.0015,-0.02077 -0.0069,-0.05944 -0.01541,-0.08805 -0.01476,-0.05643 -0.04468,-0.139008 -0.06215,-0.230211 -0.02011,-0.10247 -0.01603,-0.177645 0.0026,-0.268177 0.01563,-0.08628 0.06938,-0.120882 0.122505,-0.128561 0.02704,-0.0033 0.05469,2.47e-4 0.08399,-0.0016 0.05106,-0.0026 0.09765,0.01239 0.149221,0.0272 0.05147,0.01873 0.08819,0.06029 0.130893,0.08119 0.137326,0.06558 0.195381,0.180631 0.2601,0.302808 0.02841,0.04206 0.06617,0.08225 0.07835,0.133019 0.01695,0.05882 0.02048,0.114595 0.01183,0.173967 -4.23e-4,0.0053 -0.0015,0.01137 -2.1e-4,0.0177 0.0017,0.006 0.0071,0.0116 0.01248,0.01711 0.04726,0.05711 0.02087,0.141658 0.01105,0.202281 -0.01277,0.07631 -0.04407,0.147612 -0.08702,0.211891 -0.08974,0.134159 -0.21591,0.251669 -0.372602,0.30457 -0.03317,0.01038 -0.06261,0.02544 -0.08716,0.03822 -0.06614,0.03142 -0.13661,0.04812 -0.20564,0.05541 -0.03219,0.0019 -0.06995,0.01246 -0.101875,0.0028 -0.03035,-0.01095 -0.05252,-0.03126 -0.08328,-0.02916 -0.0477,0.0012 -0.09562,0.007 -0.141897,-0.0044 -0.183981,-0.03974 -0.340618,-0.137769 -0.500481,-0.253926 -0.02385,-0.01732 -0.04734,-0.03569 -0.06323,-0.0606 -0.01239,-0.02132 -0.01841,-0.04684 -0.0329,-0.06559 -0.01725,-0.02201 -0.04403,-0.03516 -0.06781,-0.05226 -0.02779,-0.01993 -0.04534,-0.04715 -0.06446,-0.07333 l -0.05366,-0.08574 c -0.0065,-0.0124 -0.0093,-0.02385 -0.01011,-0.0356 -0.01937,-0.02418 -0.02894,-0.05378 -0.04159,-0.07622 -0.02576,-0.0445 -0.04815,-0.09012 -0.06189,-0.137471 -0.03,-0.09973 -0.06647,-0.193044 -0.07334,-0.290096 -0.0013,-0.01935 -0.0099,-0.037 -0.01752,-0.05423 -0.02009,-0.04455 -0.03212,-0.09072 -0.04028,-0.136783 -0.0039,-0.02172 -0.01687,-0.04454 -0.01012,-0.069 0.0062,-0.02312 0.02246,-0.04358 0.01519,-0.06681 -0.01112,-0.03606 -0.02639,-0.07266 -0.02903,-0.114494 -0.0092,-0.16336 0.01153,-0.369782 0.142568,-0.600018 0.02638,-0.04414 0.05752,-0.08283 0.09683,-0.109542 0.0324,-0.02221 0.06855,-0.03396 0.09911,-0.05246 0.03691,-0.0213 0.06689,-0.05372 0.104145,-0.07745 0.04265,-0.02773 0.09306,-0.04319 0.145392,-0.05349 0.0559,-0.01055 0.115747,-0.01504 0.180463,-0.0097 0.06251,0.0058 0.10141,0.0323 0.155657,0.06634 0.0421,0.02616 0.113468,0.04439 0.137284,0.09649 0.01522,0.0344 0.0053,0.08337 -0.0057,0.117237 -0.02474,0.0785 -0.08459,0.132628 -0.152717,0.181212 -0.0437,0.02794 -0.07976,0.05111 -0.121196,0.0776"
       style="fill:#033454;fill-opacity:1;fill-rule:nonzero;stroke:none;stroke-width:0.35277775"
       id="path311"
       inkscape:connector-curvature="0" />
    <path
       d="m 57.770216,73.400312 c 0.21686,-0.176981 0.465269,-0.29207 0.728825,-0.301718 0.512547,-0.01923 0.936409,0.378219 1.277786,0.761125 0.392895,0.441066 0.764781,0.901007 1.114108,1.377871 0.413681,0.56528 0.808875,1.195186 0.828354,1.895625 0.0599,2.128473 -2.608874,1.753696 -3.559843,0.595708 -0.596054,-0.726297 -1.17335,-1.743763 -1.185672,-2.70866 -0.0066,-0.535238 0.317946,-1.228905 0.796442,-1.619951"
       style="fill:#033454;fill-opacity:1;fill-rule:nonzero;stroke:none;stroke-width:0.35277775"
       id="path315"
       inkscape:connector-curvature="0" />
    <path
       d="m 62.220368,80.329457 c 0.420381,-0.333847 1.019876,-0.438509 1.496141,-0.162522 0.301179,0.174756 0.529389,0.45224 0.72974,0.737153 0.370531,0.52691 0.68104,1.155182 0.580466,1.791309 -0.258817,1.635624 -2.26795,1.520398 -2.989509,0.322537 -0.503237,-0.834889 -0.664266,-2.015504 0.183149,-2.688463"
       style="fill:#033454;fill-opacity:1;fill-rule:nonzero;stroke:none;stroke-width:0.35277775"
       id="path319"
       inkscape:connector-curvature="0" />
    <path
       d="m 55.122095,81.743178 c -0.29064,-1.128484 0.623974,-3.416974 2.129806,-2.601061 0.404023,0.218977 0.642611,0.646429 0.859195,1.05185 0.285034,0.532289 0.569675,1.064885 0.854318,1.597473 0.211667,0.395956 0.427104,0.802284 0.491097,1.246852 0.165282,1.153051 -1.025662,2.032735 -2.103972,1.683913 -1.142303,-0.369723 -1.951176,-1.893403 -2.230444,-2.979027"
       style="fill:#033454;fill-opacity:1;fill-rule:nonzero;stroke:none;stroke-width:0.35277775"
       id="path323"
       inkscape:connector-curvature="0" />
    <path
       d="m 60.001441,87.045697 c 0.0975,-0.655659 0.656189,-1.144327 1.315477,-1.170341 0.777003,-0.0305 1.31169,0.517165 1.678159,1.149787 0.200671,0.346734 0.366783,0.728181 0.370509,1.128843 0.01507,1.849846 -2.444498,1.431794 -3.072361,0.216001 -0.215314,-0.416612 -0.361583,-0.85294 -0.291786,-1.324292"
       style="fill:#033454;fill-opacity:1;fill-rule:nonzero;stroke:none;stroke-width:0.35277775"
       id="path327"
       inkscape:connector-curvature="0" />
    <path
       d="m 100.35144,68.130357 c 0.46055,0.961341 1.31548,2.458389 1.01578,3.57256 -0.33541,1.247844 -1.710654,1.261704 -2.642859,0.69362 -0.872175,-0.531313 -1.493775,-0.889454 -2.168055,-2.118428 z"
       style="fill:#ffffff;fill-opacity:1;fill-rule:nonzero;stroke:none;stroke-width:0.35277775"
       id="path367"
       inkscape:connector-curvature="0" />
    <path
       d="m 94.02292,71.910767 c 0.105274,1.060874 0.398488,2.75965 -0.263467,3.705137 -0.740692,1.058196 -2.038205,0.60269 -2.720967,-0.24902 -0.638279,-0.797239 -1.100733,-1.346134 -1.315495,-2.731491 z"
       style="fill:#ffffff;fill-opacity:1;fill-rule:nonzero;stroke:none;stroke-width:0.35277775"
       id="path375"
       inkscape:connector-curvature="0" />
    <path
       d="m 79.649038,71.079709 c 0.133188,-0.04273 0.261212,-0.0275 0.577436,0.08546 0.133719,0.04686 0.275754,0.118529 0.415733,0.181535 l 0.603495,0.247096 c 0.125444,0.05114 0.248833,0.09334 0.373168,0.136652 0.125381,0.03492 0.251434,0.07189 0.381162,0.120493 0.163178,0.06121 0.3294,0.119918 0.493662,0.174455 0.263575,0.0877 0.527575,0.140211 0.790446,0.210942 l 0.394916,0.09896 0.394792,0.08013 c 0.22851,0.04556 0.460911,0.09853 0.686689,0.133125 0.227005,0.03405 0.457918,0.08964 0.689604,0.125117 0.171748,0.02985 0.329479,0.01651 0.501364,0.03885 0.247753,0.03351 0.496089,0.05201 0.740333,0.06772 0.241798,0.0039 0.479935,0.01019 0.714272,0.03972 0.401357,0.02916 0.788656,5.5e-5 1.182442,-0.0032 0.200606,-0.0086 0.39588,-0.03329 0.59417,-0.04818 0.160814,-0.01403 0.312161,-0.0087 0.475669,-0.02686 l 0.296403,-0.04677 c 0.364095,-0.05427 0.729737,-0.135365 1.078454,-0.211333 0.419489,-0.07089 0.820322,-0.184563 1.227374,-0.283971 0.221318,-0.05083 0.425461,-0.134085 0.638392,-0.199115 0.210971,-0.06945 0.425531,-0.131049 0.631983,-0.208289 0.03781,-0.01286 0.06969,-0.02818 0.102826,-0.04247 l 0.137068,-0.06261 c 0.01442,-0.0067 0.02789,-0.01321 0.04291,-0.02033 0.118667,-0.05426 0.2552,-0.09976 0.376709,-0.151769 l 0.755002,-0.355449 0.245708,-0.121794 0.382502,-0.209263 c 0.181055,-0.08997 0.350783,-0.200614 0.521658,-0.302205 0.148566,-0.08785 0.307019,-0.163529 0.460928,-0.248215 0.07381,-0.0519 0.150017,-0.105621 0.224101,-0.158054 0.06537,-0.05223 0.130209,-0.104544 0.205433,-0.147924 0.385875,-0.211141 0.70046,-0.529369 1.063323,-0.730573 0.279759,-0.216634 0.567434,-0.425832 0.832199,-0.661038 l 0.409676,-0.360555 c 0.113058,-0.09555 0.219304,-0.177701 0.328744,-0.282631 l 0.199677,-0.19563 c 0.248929,-0.234977 0.468639,-0.516541 0.709209,-0.752991 0.27757,-0.284599 0.54431,-0.581585 0.81455,-0.874676 0.27935,-0.328288 0.55749,-0.654755 0.83562,-0.981838 0.0725,-0.08219 0.11929,-0.161098 0.18084,-0.246017 0.0785,-0.102712 0.16301,-0.213603 0.24211,-0.317081 0.16563,-0.220501 0.33443,-0.438092 0.4931,-0.664572 0.30872,-0.424611 0.66538,-0.813283 0.93625,-1.26644 0.15078,-0.259908 0.29878,-0.492395 0.47951,-0.743274 0.0645,-0.09262 0.11786,-0.182924 0.18925,-0.257489 0.079,-0.08266 0.16771,-0.14471 0.24593,-0.20579 0.15189,-0.118129 0.27341,-0.129335 0.33851,-0.0483 0.0673,0.08438 0.056,0.223579 0.0459,0.387904 -0.009,0.149214 -0.0971,0.342298 -0.20615,0.517467 -0.0565,0.08889 -0.11483,0.180063 -0.17401,0.273719 l -0.31326,0.482712 c -0.10081,0.156077 -0.21877,0.281232 -0.31829,0.439433 -0.28902,0.458875 -0.63207,0.872735 -0.96134,1.306079 -0.1165,0.161807 -0.22086,0.325142 -0.34276,0.479838 -0.14516,0.181818 -0.28376,0.33897 -0.44065,0.508766 -0.0157,0.01685 -0.0314,0.03413 -0.045,0.05277 -0.0144,0.02029 -0.0244,0.04162 -0.0357,0.06207 -0.10286,0.201201 -0.32612,0.422653 -0.47651,0.605271 -0.1829,0.224631 -0.37845,0.437916 -0.57684,0.648985 -0.41915,0.446449 -0.84122,0.886723 -1.29853,1.291533 -0.0908,0.08061 -0.17522,0.167911 -0.261856,0.252593 -0.226276,0.209833 -0.45575,0.418203 -0.691871,0.619199 -0.114987,0.09264 -0.242199,0.206106 -0.362366,0.289293 -0.115585,0.0801 -0.21471,0.135321 -0.327468,0.230346 -0.180209,0.139754 -0.350842,0.278289 -0.53674,0.413589 -0.73608,0.516497 -1.496886,0.982635 -2.307288,1.407911 -0.131853,0.0736 -0.264006,0.147732 -0.408069,0.202542 -0.116648,0.04783 -0.235931,0.08888 -0.350949,0.140106 -0.139304,0.05964 -0.264219,0.138613 -0.401304,0.200317 -0.160108,0.07133 -0.326238,0.136637 -0.492075,0.201395 -0.175641,0.06956 -0.350955,0.139805 -0.534989,0.194858 -0.07473,0.02477 -0.138789,0.04192 -0.201335,0.05736 -0.164529,0.05421 -0.338286,0.111546 -0.484361,0.159808 -0.294942,0.08312 -0.592463,0.161974 -0.89161,0.2374 -0.323553,0.06535 -0.646184,0.13035 -0.968512,0.195104 -0.327249,0.05294 -0.659109,0.09415 -0.990658,0.135434 l -0.398487,0.0411 c -0.337546,0.03646 -0.675952,0.07603 -1.026714,0.07711 -0.165376,0.0044 -0.354414,0.01741 -0.520312,0.01262 -0.157752,-8.84e-4 -0.290721,-0.02888 -0.457124,-0.02865 -0.258531,-0.0038 -0.505355,0.0028 -0.767869,-0.01237 -1.029816,-0.07 -2.06305,-0.247256 -3.118515,-0.474551 -0.174884,-0.04478 -0.350721,-0.09065 -0.525184,-0.14398 -0.143562,-0.04377 -0.284771,-0.09303 -0.42888,-0.133676 -0.173173,-0.0512 -0.344161,-0.10186 -0.516395,-0.152656 -0.200655,-0.06033 -0.403349,-0.128466 -0.605116,-0.196705 l -0.640019,-0.258687 c -0.204034,-0.08569 -0.333046,-0.143543 -0.519456,-0.244432 -0.149377,-0.0807 -0.345771,-0.157879 -0.48229,-0.245373 -0.09027,-0.05772 -0.161663,-0.129469 -0.218377,-0.183327 -0.128335,-0.121699 -0.177266,-0.214415 -0.173955,-0.285535 0.0024,-0.04412 0.0648,-0.05084 0.118038,-0.068"
       style="fill:#033454;fill-opacity:1;fill-rule:nonzero;stroke:none;stroke-width:0.30696785"
       id="path379"
       inkscape:connector-curvature="0" />
  </g>
</svg>
